<svg xmlns="http://www.w3.org/2000/svg" width="512" height="512" viewBox="0 0 512 512"><path d="M77.017 148.079v313.921h224.259c-.698-.663-1.392-1.335-2.075-2.019-37.591-37.591-41.172-95.154-13.183-136.485v-113.034c0-8.291 6.716-15.012 15-15.012s15 6.721 15 15.012v83.317c18.158-12.04 39.495-18.241 61.667-17.782v-127.918h-300.668zm91.667 252.536c0 8.291-6.716 15.012-15 15.012s-15-6.721-15-15.012v-190.153c0-8.291 6.716-15.012 15-15.012s15 6.721 15 15.012v190.153zm73.667 0c0 8.291-6.716 15.012-15 15.012s-15-6.721-15-15.012v-190.153c0-8.291 6.716-15.012 15-15.012s15 6.721 15 15.012v190.153zm153.562-282.56h-337.125v-40.033h94.938c15.465 0 28-12.546 28-28.022h91.25c0 15.477 12.536 28.022 28 28.022h94.938v40.033zm-20.493 187.917c-42.961 0-77.792 34.827-77.792 77.792 0 42.961 34.831 77.788 77.792 77.788 42.963 0 77.792-34.827 77.792-77.788 0-42.965-34.829-77.792-77.792-77.792zm29.503 124.067l-29.124-29.122-29.124 29.124-15.643-15.651 29.118-29.122-29.122-29.119 15.651-15.642 29.117 29.111 29.111-29.115 15.655 15.645-29.117 29.12 29.122 29.115-15.644 15.656z"/></svg>