<?xml version="1.0" encoding="UTF-8" standalone="no"?>
<svg
   xmlns:dc="http://purl.org/dc/elements/1.1/"
   xmlns:cc="http://creativecommons.org/ns#"
   xmlns:rdf="http://www.w3.org/1999/02/22-rdf-syntax-ns#"
   xmlns:svg="http://www.w3.org/2000/svg"
   xmlns="http://www.w3.org/2000/svg"
   xmlns:sodipodi="http://sodipodi.sourceforge.net/DTD/sodipodi-0.dtd"
   xmlns:inkscape="http://www.inkscape.org/namespaces/inkscape"
   width="263.68475"
   height="239.896"
   viewBox="0 0 263.68475 239.896"
   id="svg2"
   version="1.1"
   inkscape:version="0.91 r13725"
   sodipodi:docname="difference.svg">
  <metadata
     id="metadata10">
    <rdf:RDF>
      <cc:Work
         rdf:about="">
        <dc:format>image/svg+xml</dc:format>
        <dc:type
           rdf:resource="http://purl.org/dc/dcmitype/StillImage" />
        <dc:title />
      </cc:Work>
    </rdf:RDF>
  </metadata>
  <defs
     id="defs8" />
  <sodipodi:namedview
     pagecolor="#ffffff"
     bordercolor="#666666"
     borderopacity="1"
     objecttolerance="10"
     gridtolerance="10"
     guidetolerance="10"
     inkscape:pageopacity="0"
     inkscape:pageshadow="2"
     inkscape:window-width="1920"
     inkscape:window-height="1017"
     id="namedview6"
     showgrid="false"
     fit-margin-top="0"
     fit-margin-left="0"
     fit-margin-right="0"
     fit-margin-bottom="0"
     inkscape:zoom="1.3037281"
     inkscape:cx="239.36822"
     inkscape:cy="181.27756"
     inkscape:window-x="-8"
     inkscape:window-y="-8"
     inkscape:window-maximized="1"
     inkscape:current-layer="svg2" />
  <g
     id="g4173"
     transform="translate(-72.632205,-108.35316)">
    <ellipse
       ry="91.118645"
       rx="94.372879"
       cy="253.83051"
       cx="170.30508"
       id="path4140"
       style="fill:none;fill-rule:evenodd;stroke:#353535;stroke-width:6.5999999;stroke-linecap:butt;stroke-linejoin:miter;stroke-miterlimit:4;stroke-dasharray:none;stroke-opacity:1" />
    <ellipse
       ry="91.118645"
       rx="94.372879"
       cy="253.83051"
       cx="238.64407"
       id="path4140-2"
       style="fill:none;fill-rule:evenodd;stroke:#353535;stroke-width:6.5999999;stroke-linecap:butt;stroke-linejoin:miter;stroke-miterlimit:4;stroke-dasharray:none;stroke-opacity:1" />
    <path
       style="fill:#ff8080;fill-opacity:1;stroke:#ff8080;stroke-width:1.31199992;stroke-miterlimit:4;stroke-dasharray:none;stroke-opacity:1"
       d="m 156.81209,232.58801 c -4.55123,-0.43827 -12.85533,-1.94212 -13.73861,-2.48801 -0.25359,-0.15672 2.15048,-1.83846 5.34236,-3.73719 17.36167,-10.32778 29.70308,-23.78101 38.21469,-41.65741 5.14443,-10.80452 7.85798,-21.14786 8.58848,-32.73704 1.78707,-28.35141 -8.21396,-53.955737 -28.76322,-73.638654 -6.14706,-5.887907 -12.15122,-10.413456 -18.7481,-14.131094 -2.31591,-1.30512 -4.57248,-2.588468 -5.01461,-2.851885 -0.54918,-0.327203 1.25507,-0.889593 5.69492,-1.775124 5.64302,-1.125505 7.99857,-1.293393 17.8886,-1.274982 10.23278,0.01905 12.08415,0.168546 18.22458,1.471607 32.55902,6.909361 58.20816,29.270907 68.05562,59.332542 4.94323,15.09033 5.43581,33.41904 1.30207,48.44928 -4.00475,14.56123 -10.82427,26.40957 -21.65225,37.61894 -19.40048,20.08382 -47.0702,30.14658 -75.39453,27.41902 z"
       id="path4207"
       inkscape:connector-curvature="0"
       transform="translate(72.632205,108.35316)" />
  </g>
  <g
     transform="translate(-60.415439,-73.053763)"
     style="font-style:normal;font-weight:normal;font-size:40px;line-height:125%;font-family:sans-serif;letter-spacing:0px;word-spacing:0px;fill:#353535;fill-opacity:1;stroke:none;stroke-width:1px;stroke-linecap:butt;stroke-linejoin:miter;stroke-opacity:1"
     id="flowRoot4165">
    <path
       d="m 117.45313,97.039727 q 0,3.964843 -1.73829,7.187503 -1.71875,3.22265 -4.58984,5 -1.99219,1.23047 -4.45312,1.77734 -2.44141,0.54688 -6.44532,0.54688 l -7.343748,0 0,-29.082035 7.265628,0 q 4.25781,0 6.75781,0.625 2.51953,0.605468 4.25781,1.679687 2.96875,1.855469 4.62891,4.941406 1.66016,3.085938 1.66016,7.324219 z m -4.04297,-0.05859 q 0,-3.417968 -1.19141,-5.761718 -1.19141,-2.34375 -3.55469,-3.691407 -1.71875,-0.976562 -3.65234,-1.347656 -1.93359,-0.390625 -4.62891,-0.390625 l -3.63281,0 0,22.441403 3.63281,0 q 2.79297,0 4.86328,-0.41015 2.08985,-0.41016 3.82813,-1.52344 2.16797,-1.38672 3.24219,-3.65234 1.09375,-2.26563 1.09375,-5.664067 z"
       style=""
       id="path3341" />
    <path
       d="m 127.39453,86.082696 -4.14062,0 0,-3.808594 4.14062,0 0,3.808594 z m -0.23437,25.468754 -3.67188,0 0,-21.81641 3.67188,0 0,21.81641 z"
       style=""
       id="path3343" />
    <path
       d="m 146.04687,84.715508 -0.19531,0 q -0.60547,-0.175781 -1.58203,-0.351562 -0.97656,-0.195313 -1.71875,-0.195313 -2.36328,0 -3.4375,1.054688 -1.05469,1.035156 -1.05469,3.769531 l 0,0.742188 6.6211,0 0,3.085937 -6.50391,0 0,18.730473 -3.67187,0 0,-18.730473 -2.48047,0 0,-3.085937 2.48047,0 0,-0.722657 q 0,-3.886718 1.93359,-5.957031 1.93359,-2.089844 5.58594,-2.089844 1.23047,0 2.20703,0.117188 0.99609,0.117187 1.8164,0.273437 l 0,3.359375 z"
       style=""
       id="path3345" />
    <path
       d="m 160.10937,84.715508 -0.19531,0 q -0.60547,-0.175781 -1.58203,-0.351562 -0.97656,-0.195313 -1.71875,-0.195313 -2.36328,0 -3.4375,1.054688 -1.05469,1.035156 -1.05469,3.769531 l 0,0.742188 6.6211,0 0,3.085937 -6.50391,0 0,18.730473 -3.67187,0 0,-18.730473 -2.48047,0 0,-3.085937 2.48047,0 0,-0.722657 q 0,-3.886718 1.93359,-5.957031 1.93359,-2.089844 5.58594,-2.089844 1.23047,0 2.20703,0.117188 0.99609,0.117187 1.8164,0.273437 l 0,3.359375 z"
       style=""
       id="path3347" />
    <path
       d="m 180.69531,101.0241 -16.07422,0 q 0,2.01172 0.60547,3.51563 0.60547,1.48437 1.66016,2.4414 1.01562,0.9375 2.40234,1.40625 1.40625,0.46875 3.08594,0.46875 2.22656,0 4.47266,-0.8789 2.26562,-0.89844 3.22265,-1.75782 l 0.19531,0 0,4.00391 q -1.85546,0.78125 -3.78906,1.30859 -1.93359,0.52735 -4.0625,0.52735 -5.42969,0 -8.47656,-2.92969 -3.04688,-2.94922 -3.04688,-8.35937 0,-5.351567 2.91016,-8.496098 2.92969,-3.144531 7.69531,-3.144531 4.41407,0 6.79688,2.578125 2.40234,2.578125 2.40234,7.324219 l 0,1.992185 z m -3.57422,-2.812498 q -0.0195,-2.890625 -1.46484,-4.472656 -1.42578,-1.582031 -4.35547,-1.582031 -2.94922,0 -4.70703,1.738281 -1.73828,1.738281 -1.97266,4.316406 l 12.5,0 z"
       style=""
       id="path3349" />
    <path
       d="m 199.875,93.738946 -0.19531,0 q -0.82032,-0.195313 -1.60157,-0.273438 -0.76171,-0.09766 -1.8164,-0.09766 -1.69922,0 -3.28125,0.761719 -1.58203,0.742187 -3.04688,1.933594 l 0,15.488285 -3.67187,0 0,-21.81641 3.67187,0 0,3.222656 q 2.1875,-1.757813 3.84766,-2.480469 1.67969,-0.742187 3.41797,-0.742187 0.95703,0 1.38672,0.05859 0.42968,0.03906 1.28906,0.175782 l 0,3.769531 z"
       style=""
       id="path3351" />
    <path
       d="m 221.63281,101.0241 -16.07422,0 q 0,2.01172 0.60547,3.51563 0.60547,1.48437 1.66016,2.4414 1.01562,0.9375 2.40234,1.40625 1.40625,0.46875 3.08594,0.46875 2.22656,0 4.47266,-0.8789 2.26562,-0.89844 3.22265,-1.75782 l 0.19531,0 0,4.00391 q -1.85546,0.78125 -3.78906,1.30859 -1.93359,0.52735 -4.0625,0.52735 -5.42969,0 -8.47656,-2.92969 -3.04688,-2.94922 -3.04688,-8.35937 0,-5.351567 2.91016,-8.496098 2.92969,-3.144531 7.69531,-3.144531 4.41407,0 6.79688,2.578125 2.40234,2.578125 2.40234,7.324219 l 0,1.992185 z m -3.57422,-2.812498 q -0.0195,-2.890625 -1.46484,-4.472656 -1.42578,-1.582031 -4.35547,-1.582031 -2.94922,0 -4.70703,1.738281 -1.73828,1.738281 -1.97266,4.316406 l 12.5,0 z"
       style=""
       id="path3353" />
    <path
       d="m 245.44141,111.55145 -3.67188,0 0,-12.421879 q 0,-1.503906 -0.17578,-2.8125 -0.17578,-1.328125 -0.64453,-2.070313 -0.48828,-0.820312 -1.40625,-1.210937 -0.91797,-0.410156 -2.38281,-0.410156 -1.50391,0 -3.14454,0.742187 -1.64062,0.742188 -3.14453,1.894531 l 0,16.289067 -3.67187,0 0,-21.81641 3.67187,0 0,2.421875 q 1.71875,-1.425782 3.55469,-2.226563 1.83594,-0.800781 3.76953,-0.800781 3.53516,0 5.39063,2.128906 1.85547,2.128906 1.85547,6.132813 l 0,14.16016 z"
       style=""
       id="path3355" />
    <path
       d="m 268.64453,110.18426 q -1.83594,0.8789 -3.49609,1.36719 -1.64063,0.48828 -3.4961,0.48828 -2.36328,0 -4.33593,-0.6836 -1.97266,-0.70312 -3.37891,-2.10937 -1.42578,-1.40625 -2.20703,-3.55469 -0.78125,-2.14844 -0.78125,-5.01953 0,-5.351563 2.92969,-8.398438 2.94921,-3.046875 7.77343,-3.046875 1.875,0 3.67188,0.527344 1.8164,0.527344 3.32031,1.289062 l 0,4.082032 -0.19531,0 q -1.67969,-1.308594 -3.47656,-2.011719 -1.77735,-0.703125 -3.47657,-0.703125 -3.125,0 -4.9414,2.109375 -1.79688,2.089844 -1.79688,6.152344 0,3.94531 1.75781,6.07422 1.77735,2.10937 4.98047,2.10937 1.11328,0 2.26563,-0.29297 1.15234,-0.29296 2.07031,-0.76171 0.80078,-0.41016 1.50391,-0.85938 0.70312,-0.46875 1.11328,-0.80078 l 0.19531,0 0,4.04297 z"
       style=""
       id="path3357" />
    <path
       d="m 291.63281,101.0241 -16.07422,0 q 0,2.01172 0.60547,3.51563 0.60547,1.48437 1.66016,2.4414 1.01562,0.9375 2.40234,1.40625 1.40625,0.46875 3.08594,0.46875 2.22656,0 4.47266,-0.8789 2.26562,-0.89844 3.22265,-1.75782 l 0.19531,0 0,4.00391 q -1.85546,0.78125 -3.78906,1.30859 -1.93359,0.52735 -4.0625,0.52735 -5.42969,0 -8.47656,-2.92969 -3.04688,-2.94922 -3.04688,-8.35937 0,-5.351567 2.91016,-8.496098 2.92969,-3.144531 7.69531,-3.144531 4.41407,0 6.79688,2.578125 2.40234,2.578125 2.40234,7.324219 l 0,1.992185 z m -3.57422,-2.812498 q -0.0195,-2.890625 -1.46484,-4.472656 -1.42578,-1.582031 -4.35547,-1.582031 -2.94922,0 -4.70703,1.738281 -1.73828,1.738281 -1.97266,4.316406 l 12.5,0 z"
       style=""
       id="path3359" />
  </g>
</svg>
