<?xml version="1.0" encoding="UTF-8" standalone="no"?>
<!-- License Agreement at http://iconmonstr.com/license/ -->

<svg
   xmlns:dc="http://purl.org/dc/elements/1.1/"
   xmlns:cc="http://creativecommons.org/ns#"
   xmlns:rdf="http://www.w3.org/1999/02/22-rdf-syntax-ns#"
   xmlns:svg="http://www.w3.org/2000/svg"
   xmlns="http://www.w3.org/2000/svg"
   xmlns:sodipodi="http://sodipodi.sourceforge.net/DTD/sodipodi-0.dtd"
   xmlns:inkscape="http://www.inkscape.org/namespaces/inkscape"
   version="1.1"
   x="0px"
   y="0px"
   width="512px"
   height="512px"
   viewBox="0 0 512 512"
   enable-background="new 0 0 512 512"
   xml:space="preserve"
   id="svg2"
   inkscape:version="0.48.4 r9939"
   sodipodi:docname="like.svg"><metadata
   id="metadata9"><rdf:RDF><cc:Work
       rdf:about=""><dc:format>image/svg+xml</dc:format><dc:type
         rdf:resource="http://purl.org/dc/dcmitype/StillImage" /><dc:title></dc:title></cc:Work></rdf:RDF></metadata><defs
   id="defs7" /><sodipodi:namedview
   pagecolor="#ffffff"
   bordercolor="#666666"
   borderopacity="1"
   objecttolerance="10"
   gridtolerance="10"
   guidetolerance="10"
   inkscape:pageopacity="0"
   inkscape:pageshadow="2"
   inkscape:window-width="1916"
   inkscape:window-height="839"
   id="namedview5"
   showgrid="false"
   inkscape:zoom="0.4609375"
   inkscape:cx="256"
   inkscape:cy="256"
   inkscape:window-x="-8"
   inkscape:window-y="-8"
   inkscape:window-maximized="1"
   inkscape:current-layer="svg2" />
<path
   id="thumb-6-icon"
   d="m 84.8494809,196.036806 c -14.7846716,23.586872 -6.8488605,55.574699 3.8578831,65.673951 -4.1249482,13.025574 -7.6741036,37.818014 3.3084729,55.557905 0,0 81.1265911,-0.746069 82.1769541,-0.815495 -12.541562,56.439231 -17.412322,146.075977 39.872857,145.507499 31.703439,-0.314613 39.186473,-28.96828 47.678011,-57.172931 C 296.858018,288.154547 383.206275,286.1396 435.205959,279.803287 434.796609,238.553318 433.885415,146.732839 433.42626,100.464117 353.82418,101.25406 313.753875,95.0733801 245.03846,66.6518549 172.821491,36.7810047 83.8300517,46.8525769 94.4755362,129.281999 75.5340258,148.370898 76.3896733,178.361884 84.8494809,196.036806 z m 27.8620641,93.689133 c -2.480341,-17.355241 5.587306,-36.880259 24.306385,-37.066021 l 33.961327,-0.33702 c 12.971362,-0.128723 17.610384,10.431763 17.695643,19.02334 0.0726,7.31564 -6.19179,17.687313 -17.931212,17.803811 l -58.032143,0.57589 z M 403.249001,129.913021 c 0.414679,41.786943 0.726097,73.168397 1.214932,122.427972 -100.420692,9.598963 -149.613422,71.141141 -169.711811,135.898768 -6.229161,20.068802 -7.872832,47.621469 -25.035292,42.621528 -18.616706,-5.42053 -18.589381,-59.201449 -4.902852,-111.114819 5.84235,-22.164066 21.748315,-40.889825 7.809479,-67.307809 24.237924,-8.592939 31.747859,-50.256513 11.150046,-67.36796 16.05883,-16.019143 15.250409,-47.700681 -4.614115,-62.670299 7.311629,-8.84099 10.298424,-18.853121 9.137604,-29.612132 33.155658,11.188542 91.155135,37.956322 174.952009,37.124751 z m -248.0909,-48.944564 25.422748,-0.2522865 c 12.492385,-0.12397 18.16549,8.0211359 18.248636,16.3997234 0.0974,9.8155171 -6.159415,18.6320381 -17.899837,18.7485461 l -56.684209,0.562514 c 0.918601,-13.447777 6.683855,-35.2180589 30.912662,-35.458497 z m -18.2896,56.766286 51.218478,-0.508275 c 12.493385,-0.12398 18.19229,10.620998 18.269294,18.380616 0.07706,7.765618 -5.407432,18.626576 -17.900817,18.750556 l -78.473136,0.77874 c -2.393688,-18.499158 6.299195,-37.197339 26.886181,-37.401637 z m -6.118725,58.305587 57.915148,-0.574729 c 12.437388,-0.123425 18.209879,10.881836 18.284461,18.397466 0.07547,7.604625 -5.415646,18.302641 -17.919031,18.426721 l -82.164954,0.815376 c -2.486899,-17.109165 5.182297,-36.879241 23.884376,-37.064834 z"
   style="fill:#ff0000"
   inkscape:connector-curvature="0" />
</svg>