<svg xmlns="http://www.w3.org/2000/svg" width="512" height="512" viewBox="0 0 512 512"><path d="M84.849 196.037c-14.785 23.587-6.849 55.575 3.858 65.674-4.125 13.026-7.674 37.818 3.308 55.558 0 0 81.127-.746 82.177-.815-12.542 56.439-17.412 146.076 39.873 145.507 31.703-.315 39.186-28.968 47.678-57.173 35.114-116.633 121.463-118.648 173.462-124.984-.409-41.25-1.321-133.07-1.78-179.339-79.602.79-119.672-5.391-188.388-33.812-72.217-29.871-161.208-19.799-150.563 62.63-18.942 19.089-18.086 49.08-9.626 66.755zm27.862 93.689c-2.48-17.355 5.587-36.88 24.306-37.066l33.961-.337c12.971-.129 17.61 10.432 17.696 19.023.073 7.316-6.192 17.687-17.931 17.804l-58.032.576zm290.537-159.813c.415 41.787.726 73.168 1.215 122.428-100.421 9.599-149.613 71.141-169.712 135.899-6.229 20.069-7.873 47.621-25.035 42.622-18.617-5.421-18.589-59.201-4.903-111.115 5.842-22.164 21.748-40.89 7.809-67.308 24.238-8.593 31.748-50.257 11.15-67.368 16.059-16.019 15.25-47.701-4.614-62.67 7.312-8.841 10.298-18.853 9.138-29.612 33.156 11.189 91.155 37.956 174.952 37.125zm-248.091-48.945l25.423-.252c12.492-.124 18.165 8.021 18.249 16.4.097 9.816-6.159 18.632-17.9 18.749l-56.684.563c.919-13.448 6.684-35.218 30.913-35.458zm-18.29 56.766l51.218-.508c12.493-.124 18.192 10.621 18.269 18.381.077 7.766-5.407 18.627-17.901 18.751l-78.473.779c-2.394-18.499 6.299-37.197 26.886-37.402zm-6.119 58.306l57.915-.575c12.437-.123 18.21 10.882 18.284 18.397.075 7.605-5.416 18.303-17.919 18.427l-82.165.815c-2.487-17.109 5.182-36.879 23.884-37.065z" fill="#f00"/></svg>