<svg xmlns="http://www.w3.org/2000/svg" width="356" height="358" viewBox="0 0 356 358" enable-background="new 0 0 512 512"><path d="M208.005 347.917l31.419-31.977-63.712-62.602 71.465-72.732 63.712 62.602 31.419-31.977 1.635 135.932zm-2.689-94.769l63.712 62.602-10.763 10.954 64.494-.357-.776-64.49-10.763 10.954-63.712-62.602z"/><path d="M150.748 15.299l-31.802 31.596 62.955 63.364-72.335 71.868-62.955-63.364-31.802 31.596v-135.941l135.939.881zm1.549 94.794l-62.955-63.364 10.894-10.823-64.493-.418v64.495l10.894-10.823 62.955 63.364 42.705-42.429z"/><path d="M342.056 153.541l-31.305-32.089-63.936 62.374-71.205-72.987 63.936-62.374-31.305-32.089 135.936 1.239-2.121 135.925zm-94.804.685l63.936-62.374 10.724 10.992 1.007-64.487-64.492-.588 10.724 10.992-63.936 62.374 42.038 43.091z"/><path d="M15.314 207.207l31.574 31.824 63.409-62.91 71.817 72.386-63.409 62.91 31.574 31.824-135.941-.095.977-135.938zm94.795-1.482l-63.409 62.91-10.816-10.901-.464 64.493 64.495.045-10.816-10.901 63.409-62.91-42.399-42.735z"/></svg>