<svg xmlns="http://www.w3.org/2000/svg" width="512" height="512" viewBox="0 0 512 512"><path d="M282.655 389.151c-11.47 0-20.773-9.303-20.773-20.777 0-11.469 9.304-20.768 20.773-20.768 11.473 0 20.772 9.299 20.772 20.768.001 11.475-9.299 20.777-20.772 20.777zm-1.831-190.062c41.294 0 59.859 27.655 59.859 53.59 0 41.277-41.696 48.449-41.696 75.07v3.738h-34.243v-3.738c0-10.572 1.542-24.138 13.819-35.931 12.277-11.794 27.619-21.536 27.619-36.271 0-16.288-11.304-24.904-25.557-24.904-23.75 0-25.301 24.631-25.887 30.055h-33.306c.889-25.684 11.745-61.609 59.392-61.609zm-156.824-76.561c-23.611 0-23.611-34.528 0-34.528h324v-38h-334c-27.613 0-50 22.386-50 50v312c0 27.614 22.387 50 50 50h334v-339.472h-324zm284 299.472h-252.473v-258.902h252.473v258.902z"/></svg>