<?xml version="1.0" encoding="UTF-8" standalone="no"?>
<svg
   xmlns:dc="http://purl.org/dc/elements/1.1/"
   xmlns:cc="http://creativecommons.org/ns#"
   xmlns:rdf="http://www.w3.org/1999/02/22-rdf-syntax-ns#"
   xmlns:svg="http://www.w3.org/2000/svg"
   xmlns="http://www.w3.org/2000/svg"
   xmlns:sodipodi="http://sodipodi.sourceforge.net/DTD/sodipodi-0.dtd"
   xmlns:inkscape="http://www.inkscape.org/namespaces/inkscape"
   width="263.68475"
   height="239.896"
   viewBox="0 0 263.68475 239.896"
   id="svg2"
   version="1.1"
   inkscape:version="0.91 r13725"
   sodipodi:docname="union.svg">
  <metadata
     id="metadata10">
    <rdf:RDF>
      <cc:Work
         rdf:about="">
        <dc:format>image/svg+xml</dc:format>
        <dc:type
           rdf:resource="http://purl.org/dc/dcmitype/StillImage" />
        <dc:title></dc:title>
      </cc:Work>
    </rdf:RDF>
  </metadata>
  <defs
     id="defs8" />
  <sodipodi:namedview
     pagecolor="#ffffff"
     bordercolor="#666666"
     borderopacity="1"
     objecttolerance="10"
     gridtolerance="10"
     guidetolerance="10"
     inkscape:pageopacity="0"
     inkscape:pageshadow="2"
     inkscape:window-width="1920"
     inkscape:window-height="1017"
     id="namedview6"
     showgrid="false"
     fit-margin-top="0"
     fit-margin-left="0"
     fit-margin-right="0"
     fit-margin-bottom="0"
     inkscape:zoom="1.3037281"
     inkscape:cx="355.36225"
     inkscape:cy="48.633621"
     inkscape:window-x="-8"
     inkscape:window-y="-8"
     inkscape:window-maximized="1"
     inkscape:current-layer="svg2" />
  <g
     id="g4173"
     transform="translate(-72.632205,-108.35316)">
    <ellipse
       ry="91.118645"
       rx="94.372879"
       cy="253.83051"
       cx="170.30508"
       id="path4140"
       style="fill:none;fill-rule:evenodd;stroke:#353535;stroke-width:6.5999999;stroke-linecap:butt;stroke-linejoin:miter;stroke-miterlimit:4;stroke-dasharray:none;stroke-opacity:1" />
    <ellipse
       ry="91.118645"
       rx="94.372879"
       cy="253.83051"
       cx="238.64407"
       id="path4140-2"
       style="fill:none;fill-rule:evenodd;stroke:#353535;stroke-width:6.5999999;stroke-linecap:butt;stroke-linejoin:miter;stroke-miterlimit:4;stroke-dasharray:none;stroke-opacity:1" />
    <path
       inkscape:connector-curvature="0"
       id="path4163"
       d="m 201.3756,333.83845 c -10.84055,-4.88006 -19.25427,-10.5302 -27.0795,-18.18492 -7.9012,-7.72904 -12.97292,-14.63564 -17.63678,-24.01753 -4.46756,-8.98701 -6.90611,-16.99166 -8.34408,-27.38983 -0.6551,-4.73709 -0.65523,-16.14263 -2.4e-4,-20.88135 1.39171,-10.06881 4.15168,-19.10608 8.44765,-27.66102 7.26013,-14.45776 18.50498,-26.72064 32.62546,-35.57914 3.31694,-2.08089 11.30836,-6.17232 13.93262,-7.1332 l 1.26718,-0.46398 3.74977,1.65761 c 9.2353,4.0825 18.6168,10.35379 25.85222,17.28153 28.26973,27.06759 35.10231,67.94389 17.09178,102.2525 -8.29687,15.80487 -22.4488,29.58218 -38.83111,37.8032 -3.61061,1.81189 -7.5313,3.50712 -8.07089,3.4897 -0.2353,-0.008 -1.58714,-0.5357 -3.00408,-1.17357 z"
       style="fill:#ff8080;stroke:#ff8080;stroke-width:0.65599996;stroke-miterlimit:4;stroke-dasharray:none;stroke-opacity:1" />
  </g>
  <g
     transform="translate(-77.095126,-82.274102)"
     style="font-style:normal;font-weight:normal;font-size:40px;line-height:125%;font-family:sans-serif;letter-spacing:0px;word-spacing:0px;fill:#353535;fill-opacity:1;stroke:none;stroke-width:1px;stroke-linecap:butt;stroke-linejoin:miter;stroke-opacity:1"
     id="flowRoot4165">
    <path
       d="m 103.13672,111.55145 -11.484376,0 0,-2.96875 3.808593,0 0,-23.144535 -3.808593,0 0,-2.96875 11.484376,0 0,2.96875 -3.808595,0 0,23.144535 3.808595,0 0,2.96875 z"
       style=""
       id="path4179" />
    <path
       d="m 127.70703,111.55145 -3.67187,0 0,-12.421879 q 0,-1.503906 -0.17578,-2.8125 -0.17579,-1.328125 -0.64454,-2.070313 -0.48828,-0.820312 -1.40625,-1.210937 -0.91796,-0.410156 -2.38281,-0.410156 -1.5039,0 -3.14453,0.742187 -1.64062,0.742188 -3.14453,1.894531 l 0,16.289067 -3.67188,0 0,-21.81641 3.67188,0 0,2.421875 q 1.71875,-1.425782 3.55469,-2.226563 1.83593,-0.800781 3.76953,-0.800781 3.53515,0 5.39062,2.128906 1.85547,2.128906 1.85547,6.132813 l 0,14.16016 z"
       style=""
       id="path4181" />
    <path
       d="m 146.10547,111.35613 q -1.03516,0.27344 -2.26563,0.44922 -1.21093,0.17578 -2.16797,0.17578 -3.33984,0 -5.07812,-1.79687 -1.73828,-1.79688 -1.73828,-5.76172 l 0,-11.601563 -2.48047,0 0,-3.085937 2.48047,0 0,-6.269532 3.67187,0 0,6.269532 7.57813,0 0,3.085937 -7.57813,0 0,9.941403 q 0,1.71875 0.0781,2.69532 0.0781,0.95703 0.54687,1.79687 0.42969,0.78125 1.17188,1.15234 0.76172,0.35157 2.30469,0.35157 0.89843,0 1.875,-0.25391 0.97656,-0.27344 1.40625,-0.44922 l 0.19531,0 0,3.30078 z"
       style=""
       id="path4183" />
    <path
       d="m 168.82031,101.0241 -16.07422,0 q 0,2.01172 0.60547,3.51563 0.60547,1.48437 1.66016,2.4414 1.01562,0.9375 2.40234,1.40625 1.40625,0.46875 3.08594,0.46875 2.22656,0 4.47266,-0.8789 2.26562,-0.89844 3.22265,-1.75782 l 0.19531,0 0,4.00391 q -1.85546,0.78125 -3.78906,1.30859 -1.93359,0.52735 -4.0625,0.52735 -5.42969,0 -8.47656,-2.92969 -3.04688,-2.94922 -3.04688,-8.35937 0,-5.351567 2.91016,-8.496098 2.92969,-3.144531 7.69531,-3.144531 4.41407,0 6.79688,2.578125 2.40234,2.578125 2.40234,7.324219 l 0,1.992185 z m -3.57422,-2.812498 q -0.0195,-2.890625 -1.46484,-4.472656 -1.42578,-1.582031 -4.35547,-1.582031 -2.94922,0 -4.70703,1.738281 -1.73828,1.738281 -1.97266,4.316406 l 12.5,0 z"
       style=""
       id="path4185" />
    <path
       d="m 188,93.738946 -0.19531,0 q -0.82032,-0.195313 -1.60157,-0.273438 -0.76171,-0.09766 -1.8164,-0.09766 -1.69922,0 -3.28125,0.761719 -1.58203,0.742187 -3.04688,1.933594 l 0,15.488285 -3.67187,0 0,-21.81641 3.67187,0 0,3.222656 q 2.1875,-1.757813 3.84766,-2.480469 1.67969,-0.742187 3.41797,-0.742187 0.95703,0 1.38672,0.05859 0.42968,0.03906 1.28906,0.175782 l 0,3.769531 z"
       style=""
       id="path4187" />
    <path
       d="m 207.08203,105.26238 q 0,2.98828 -2.48047,4.90235 -2.46094,1.91406 -6.73828,1.91406 -2.42187,0 -4.45312,-0.56641 -2.01172,-0.58593 -3.37891,-1.26953 l 0,-4.12109 0.19531,0 q 1.73828,1.30859 3.86719,2.08984 2.12891,0.76172 4.08203,0.76172 2.42188,0 3.78906,-0.78125 1.36719,-0.78125 1.36719,-2.46094 0,-1.28906 -0.74219,-1.95312 -0.74218,-0.66406 -2.85156,-1.13281 -0.78125,-0.17579 -2.05078,-0.41016 -1.25,-0.23438 -2.28516,-0.50781 -2.87109,-0.76172 -4.08203,-2.226565 -1.1914,-1.484375 -1.1914,-3.632813 0,-1.347656 0.54687,-2.539062 0.56641,-1.191407 1.69922,-2.128907 1.09375,-0.917968 2.77344,-1.445312 1.69922,-0.546875 3.78906,-0.546875 1.95312,0 3.94531,0.488281 2.01172,0.46875 3.33985,1.152344 l 0,3.925781 -0.19532,0 q -1.40625,-1.035156 -3.41797,-1.738281 -2.01171,-0.722656 -3.94531,-0.722656 -2.01172,0 -3.39844,0.78125 -1.38671,0.761718 -1.38671,2.285156 0,1.347656 0.83984,2.03125 0.82031,0.683594 2.65625,1.113281 1.01562,0.234375 2.26562,0.46875 1.26954,0.234375 2.10938,0.429688 2.55859,0.58594 3.94531,2.01172 1.38672,1.44531 1.38672,3.82812 z"
       style=""
       id="path4189" />
    <path
       d="m 230.61719,101.0241 -16.07422,0 q 0,2.01172 0.60547,3.51563 0.60547,1.48437 1.66015,2.4414 1.01563,0.9375 2.40235,1.40625 1.40625,0.46875 3.08593,0.46875 2.22657,0 4.47266,-0.8789 2.26563,-0.89844 3.22266,-1.75782 l 0.19531,0 0,4.00391 q -1.85547,0.78125 -3.78906,1.30859 -1.9336,0.52735 -4.0625,0.52735 -5.42969,0 -8.47657,-2.92969 -3.04687,-2.94922 -3.04687,-8.35937 0,-5.351567 2.91016,-8.496098 2.92968,-3.144531 7.69531,-3.144531 4.41406,0 6.79687,2.578125 2.40235,2.578125 2.40235,7.324219 l 0,1.992185 z m -3.57422,-2.812498 q -0.0195,-2.890625 -1.46485,-4.472656 -1.42578,-1.582031 -4.35546,-1.582031 -2.94922,0 -4.70704,1.738281 -1.73828,1.738281 -1.97265,4.316406 l 12.5,0 z"
       style=""
       id="path4191" />
    <path
       d="m 252.31641,110.18426 q -1.83594,0.8789 -3.4961,1.36719 -1.64062,0.48828 -3.49609,0.48828 -2.36328,0 -4.33594,-0.6836 -1.97266,-0.70312 -3.37891,-2.10937 -1.42578,-1.40625 -2.20703,-3.55469 -0.78125,-2.14844 -0.78125,-5.01953 0,-5.351563 2.92969,-8.398438 2.94922,-3.046875 7.77344,-3.046875 1.875,0 3.67187,0.527344 1.81641,0.527344 3.32032,1.289062 l 0,4.082032 -0.19532,0 q -1.67968,-1.308594 -3.47656,-2.011719 -1.77734,-0.703125 -3.47656,-0.703125 -3.125,0 -4.94141,2.109375 -1.79687,2.089844 -1.79687,6.152344 0,3.94531 1.75781,6.07422 1.77734,2.10937 4.98047,2.10937 1.11328,0 2.26562,-0.29297 1.15235,-0.29296 2.07032,-0.76171 0.80078,-0.41016 1.5039,-0.85938 0.70313,-0.46875 1.11328,-0.80078 l 0.19532,0 0,4.04297 z"
       style=""
       id="path4193" />
    <path
       d="m 268.37109,111.35613 q -1.03515,0.27344 -2.26562,0.44922 -1.21094,0.17578 -2.16797,0.17578 -3.33984,0 -5.07813,-1.79687 -1.73828,-1.79688 -1.73828,-5.76172 l 0,-11.601563 -2.48047,0 0,-3.085937 2.48047,0 0,-6.269532 3.67188,0 0,6.269532 7.57812,0 0,3.085937 -7.57812,0 0,9.941403 q 0,1.71875 0.0781,2.69532 0.0781,0.95703 0.54688,1.79687 0.42969,0.78125 1.17187,1.15234 0.76172,0.35157 2.30469,0.35157 0.89844,0 1.875,-0.25391 0.97656,-0.27344 1.40625,-0.44922 l 0.19531,0 0,3.30078 z"
       style=""
       id="path4195" />
    <path
       d="m 276.76953,86.082696 -4.14062,0 0,-3.808594 4.14062,0 0,3.808594 z m -0.23437,25.468754 -3.67188,0 0,-21.81641 3.67188,0 0,21.81641 z"
       style=""
       id="path4197" />
    <path
       d="m 302.27734,100.65301 q 0,5.33203 -2.73437,8.41797 -2.73438,3.08593 -7.32422,3.08593 -4.62891,0 -7.36328,-3.08593 -2.71485,-3.08594 -2.71485,-8.41797 0,-5.332033 2.71485,-8.41797 2.73437,-3.105469 7.36328,-3.105469 4.58984,0 7.32422,3.105469 2.73437,3.085937 2.73437,8.41797 z m -3.78906,0 q 0,-4.238283 -1.66016,-6.289064 -1.66015,-2.070313 -4.60937,-2.070313 -2.98828,0 -4.64844,2.070313 -1.64062,2.050781 -1.64062,6.289064 0,4.10156 1.66015,6.23047 1.66016,2.10937 4.62891,2.10937 2.92969,0 4.58984,-2.08984 1.67969,-2.10938 1.67969,-6.25 z"
       style=""
       id="path4199" />
    <path
       d="m 326.22266,111.55145 -3.67188,0 0,-12.421879 q 0,-1.503906 -0.17578,-2.8125 -0.17578,-1.328125 -0.64453,-2.070313 -0.48828,-0.820312 -1.40625,-1.210937 -0.91797,-0.410156 -2.38281,-0.410156 -1.50391,0 -3.14454,0.742187 -1.64062,0.742188 -3.14453,1.894531 l 0,16.289067 -3.67187,0 0,-21.81641 3.67187,0 0,2.421875 q 1.71875,-1.425782 3.55469,-2.226563 1.83594,-0.800781 3.76953,-0.800781 3.53516,0 5.39063,2.128906 1.85547,2.128906 1.85547,6.132813 l 0,14.16016 z"
       style=""
       id="path4201" />
  </g>
</svg>
