<?xml version="1.0" encoding="UTF-8" standalone="no"?>
<svg
   xmlns:dc="http://purl.org/dc/elements/1.1/"
   xmlns:cc="http://creativecommons.org/ns#"
   xmlns:rdf="http://www.w3.org/1999/02/22-rdf-syntax-ns#"
   xmlns:svg="http://www.w3.org/2000/svg"
   xmlns="http://www.w3.org/2000/svg"
   xmlns:sodipodi="http://sodipodi.sourceforge.net/DTD/sodipodi-0.dtd"
   xmlns:inkscape="http://www.inkscape.org/namespaces/inkscape"
   width="396pt"
   height="127pt"
   viewBox="0 0 396 127"
   version="1.1"
   id="svg2"
   inkscape:version="0.48.4 r9939"
   sodipodi:docname="markyLogo.svg">
  <metadata
     id="metadata76">
    <rdf:RDF>
      <cc:Work
         rdf:about="">
        <dc:format>image/svg+xml</dc:format>
        <dc:type
           rdf:resource="http://purl.org/dc/dcmitype/StillImage" />
      </cc:Work>
    </rdf:RDF>
  </metadata>
  <defs
     id="defs74" />
  <sodipodi:namedview
     pagecolor="#ffffff"
     bordercolor="#666666"
     borderopacity="1"
     objecttolerance="10"
     gridtolerance="10"
     guidetolerance="10"
     inkscape:pageopacity="0"
     inkscape:pageshadow="2"
     inkscape:window-width="1264"
     inkscape:window-height="849"
     id="namedview72"
     showgrid="false"
     inkscape:zoom="1.51111111"
     inkscape:cx="324.464614"
     inkscape:cy="76.6875459"
     inkscape:window-x="-8"
     inkscape:window-y="-8"
     inkscape:window-maximized="1"
     inkscape:current-layer="svg2" />
  <g
     id="#feffbbff">
    <path
       fill="#feffbb"
       opacity="1.00"
       d=" M 367.74 8.52 C 375.64 3.13 386.85 5.52 396.00 3.87 L 396.00 6.97 C 386.32 4.81 377.30 10.82 367.74 8.52 Z"
       id="path8" />
  </g>
  <g
     id="#fcfe4cff">
    <path
       d="m 367.74,8.52 c 9.56,2.3 18.58,-3.71 28.26,-1.55 l 0,74.95 c -13.61,-0.99 -26.62,3.52 -40.06,3.97 2.75,-5.99 8.9,-10.68 8.11,-17.87 -12.03,-2.74 -12.03,13.98 -18.91,20.22 -2.92,-8.06 2.98,-25.78 -12.12,-20.25 0.42,9.2 3.05,18.09 4.02,27.21 -2.06,-6.33 -10.31,-1.92 -15.15,-1.96 -2.15,-3.7 -4.26,-7.44 -5.91,-11.39 3.9,-5.48 10.19,-8.59 14.29,-13.89 -11.68,-4.06 -16.44,7.69 -24.48,12.84 -2.96,-5.95 14.77,-31.03 -4.43,-24.69 -3.68,13.13 -5.72,26.7 -9.46,39.82 -6.38,0.69 -12.93,0.78 -19.08,2.75 4.22,-7.12 -0.48,-23.65 12.22,-21.57 7.48,2.81 6.28,-5.18 7.7,-9.38 -4.69,-3.32 -15.56,9.78 -12.79,0.27 -14.87,-4.27 -10.62,15.05 -14.93,24 -0.48,3.07 -2.76,8.02 2.18,7.41 -19.21,3.16 -38.44,5.55 -57.69,8.2 -42.188235,7.127647 6.929412,-1.01 -41.450588,6.509412 -7.2,2.89 -16.659412,-2.479412 -23.069412,1.910588 l -0.15,-0.82 c 0.9,-2.2 -46.6058824,-2.661765 -45.4558824,-4.731765 4.7100004,-10.28 -3.8829412,-14.3588232 -2.0029412,-24.4888232 1.33,-13.58 1.7505883,-22.5047059 -12.2694117,-32.8647059 C 128.941765,47.6047059 246.4,26.33 290.35,22.33 c 23.34,-8.36 50.17,-6 73.05,-13.44 1.43,-0.23 2.88,-0.38 4.34,-0.37 M 181.27,52.09 c -5.1,14.95 -7.23,31.42 -11.33,46.85 19.88,6.95 12.05,-21.34 18.93,-29.68 2.21,5.99 2.59,12.47 4.37,18.59 12.17,3.89 14.08,-11.63 20.73,-18.02 -1.22,9.85 -5.08,19.27 -5.97,29.11 4.1,-0.78 12.3,3.02 12.82,-3.08 2.69,-14.65 7.79,-28.93 9.19,-43.75 -17.57,-6.48 -20.87,13.22 -29.72,23.02 -3.4,-11.1 -1.45,-29.87 -19.02,-23.04 m 58.13,15.29 c -6.04,-1.71 -7.48,4.21 -7.48,8.46 4.26,-0.58 18.48,-5.77 17.02,3.01 -8.14,1.27 -20.82,0.79 -23.01,11.16 -2.28,11.67 12.69,12.03 18.87,6 -0.89,5.38 6.37,1.96 8.95,2.87 2.7,-7.02 3.16,-14.71 5.12,-21.95 2.4,-11.04 -12.93,-10.88 -19.47,-9.55 z"
       id="path14"
       inkscape:connector-curvature="0"
       style="fill:#fcfe4c"
       sodipodi:nodetypes="cccccccccccccccccccccccccccccccccccccccccccccccc" />
  </g>
  <g
     id="#41a802ff">
    <path
       fill="#41a802"
       opacity="1.00"
       d=" M 181.27 52.09 C 198.84 45.26 196.89 64.03 200.29 75.13 C 209.14 65.33 212.44 45.63 230.01 52.11 C 228.61 66.93 223.51 81.21 220.82 95.86 C 220.30 101.96 212.10 98.16 208.00 98.94 C 208.89 89.10 212.75 79.68 213.97 69.83 C 207.32 76.22 205.41 91.74 193.24 87.85 C 191.46 81.73 191.08 75.25 188.87 69.26 C 181.99 77.60 189.82 105.89 169.94 98.94 C 174.04 83.51 176.17 67.04 181.27 52.09 Z"
       id="path37" />
  </g>
  <g
     id="#080804ff">
    <path
       fill="#080804"
       opacity="1.00"
       d=" M 301.36 56.11 C 320.56 49.77 302.83 74.85 305.79 80.80 C 313.83 75.65 318.59 63.90 330.27 67.96 C 326.17 73.26 319.88 76.37 315.98 81.85 C 317.63 85.80 319.74 89.54 321.89 93.24 C 330.78 100.96 312.32 103.03 311.89 94.91 C 311.01 91.93 310.08 88.93 308.63 86.17 C 302.31 85.50 301.96 94.76 300.74 98.84 C 297.46 99.52 294.10 99.13 290.89 98.42 C 291.14 97.80 291.65 96.55 291.90 95.93 C 295.64 82.81 297.68 69.24 301.36 56.11 Z"
       id="path40" />
  </g>
  <g
     id="#050501ff">
    <path
       fill="#050501"
       opacity="1.00"
       d=" M 239.40 67.38 C 245.94 66.05 261.27 65.89 258.87 76.93 C 256.91 84.17 256.45 91.86 253.75 98.88 C 251.17 97.97 243.91 101.39 244.80 96.01 C 238.62 102.04 223.65 101.68 225.93 90.01 C 228.12 79.64 240.80 80.12 248.94 78.85 C 250.40 70.07 236.18 75.26 231.92 75.84 C 231.92 71.59 233.36 65.67 239.40 67.38 M 243.46 85.45 C 239.58 85.85 232.62 87.80 236.64 93.33 C 243.04 100.38 253.27 81.84 243.46 85.45 Z"
       id="path46" />
  </g>
  <g
     id="#070702ff">
    <path
       fill="#070702"
       opacity="1.00"
       d=" M 265.02 92.00 C 269.33 83.05 265.08 63.73 279.95 68.00 C 277.18 77.51 288.05 64.41 292.74 67.73 C 291.32 71.93 292.52 79.92 285.04 77.11 C 272.34 75.03 277.04 91.56 272.82 98.68 C 270.97 99.09 269.08 99.21 267.20 99.41 C 262.26 100.02 264.54 95.07 265.02 92.00 Z"
       id="path49" />
  </g>
  <g
     id="#0c0d0aff">
    <path
       fill="#0c0d0a"
       opacity="1.00"
       d=" M 333.02 67.99 C 348.12 62.46 342.22 80.18 345.14 88.24 C 352.02 82.00 352.02 65.28 364.05 68.02 C 364.84 75.21 358.69 79.90 355.94 85.89 C 355.65 86.43 355.07 87.49 354.78 88.02 C 347.43 96.58 345.32 115.10 329.91 109.99 C 331.42 104.66 337.52 101.11 337.04 95.20 C 336.07 86.08 333.44 77.19 333.02 67.99 Z"
       id="path52" />
  </g>
  <g
     id="#fcfeb8ff">
    <path
       fill="#fcfeb8"
       opacity="1.00"
       d=" M 355.94 85.89 C 369.38 85.44 382.39 80.93 396.00 81.92 L 396.00 83.97 C 382.02 82.43 368.41 89.64 354.78 88.02 C 355.07 87.49 355.65 86.43 355.94 85.89 Z"
       id="path55" />
  </g>
  <g
     id="#f6f745ff">
    <path
       fill="#f6f745"
       opacity="1.00"
       d=" M 243.46 85.45 C 253.27 81.84 243.04 100.38 236.64 93.33 C 232.62 87.80 239.58 85.85 243.46 85.45 Z"
       id="path58" />
  </g>
  <g
     id="#ecf07dff">
    <path
       fill="#ecf07d"
       opacity="1.00"
       d=" M 300.74 98.84 C 301.96 94.76 302.31 85.50 308.63 86.17 C 310.08 88.93 311.01 91.93 311.89 94.91 C 307.93 95.52 303.79 96.01 300.74 98.84 Z"
       id="path61" />
  </g>
  <g
     id="g3198"
     transform="matrix(-0.26875,0,0,0.245588236,158,-6.64705938)">
    <g
       id="#41414141" />
    <g
       id="#2626254e">
      <path
         id="path3059"
         d="m 390.81,35.72 c 1.61,-0.99 4.14,-1.42 5.81,-0.34 -1.18,1.31 -4.18,0.91 -5.81,0.34 z"
         inkscape:connector-curvature="0"
         style="opacity:0.310000012;fill:#262625" />
    </g>
    <g
       id="#1f1a17ff">
      <path
         id="path3062"
         d="m 371.93,50.41 c 5.58,-4.92 9.87,-11.92 17.26,-14.29 2.73,1.1 5.65,0.57 8.41,-0.05 3.5,0.59 6.49,2.82 8.94,5.29 8.35,8.38 16.71,16.75 25.1,25.1 1.09,0.86 1.35,2.24 1.77,3.48 l 1.53,-0.23 c 30.11,30.34 60.44,60.48 90.64,90.74 3.91,3.93 8.73,7.79 9.49,13.68 -1.56,1.95 -1.56,4.75 -0.06,6.73 -1.71,8.01 -9.31,12.46 -14.41,18.21 3.55,3.63 7.69,7.06 9.42,12.01 2.85,7.48 0.8,16.38 -4.85,22.02 -74.86,79.49 -149.74,158.96 -224.62,238.44 -5.42,6.32 -14.8,8.48 -22.5,5.46 -6.68,-2.55 -10.76,-8.78 -15.97,-13.32 -8.14,8.29 -16.37,16.51 -24.65,24.66 -2.54,2.62 -6.23,3.25 -9.71,3.43 -5.2,4.91 -10.01,10.22 -15.27,15.06 -1.59,0.18 -3.02,-1.13 -4.48,-1.65 -9.77,-5.11 -20.32,-8.62 -31.2,-10.4 -1.55,-2.32 -4.46,-1.77 -6.85,-1.83 -6.94,0.21 -13.89,-0.2 -20.82,0.23 0.19,0.41 0.59,1.22 0.79,1.62 -0.9,0.11 -1.79,0.24 -2.67,0.39 -2.8,0.35 -5.62,0.33 -8.43,0.28 -0.38,0.33 -1.15,0.99 -1.54,1.32 -6.03,5.94 -11.98,11.97 -17.97,17.95 -1.56,-1.56 -3.12,-3.1 -4.69,-4.64 -4.9,5.03 -9.82,10.05 -14.89,14.91 -5.7,-3.53 -10.93,-7.8 -16.4,-11.68 -15.5,-10.95 -30.79,-22.2 -46.23,-33.23 8.06,-7.83 15.92,-15.85 23.87,-23.79 -1.57,-1.52 -3.13,-3.04 -4.71,-4.54 6.58,-6.57 13.13,-13.17 19.75,-19.71 -0.18,-0.52 -0.54,-1.57 -0.72,-2.1 0.9,-1.37 0.9,-3.05 0.8,-4.62 -0.05,-1.61 0.01,-3.2 0.08,-4.79 l 0.42,-0.45 c 0.31,-0.33 0.94,-0.98 1.25,-1.31 0.37,-4.93 -0.04,-9.88 0.16,-14.81 -0.06,-2.78 0.61,-5.91 -1.36,-8.21 l -0.32,-0.56 c 0.05,-0.31 0.13,-0.94 0.18,-1.25 0.91,-1.47 1.38,-3.47 -0.06,-4.78 -0.18,0.79 -0.53,2.36 -0.71,3.15 -0.25,-1.82 -0.62,-3.64 -0.63,-5.48 -0.23,-0.47 -0.68,-1.42 -0.91,-1.9 -0.02,-0.51 -0.08,-1.53 -0.1,-2.04 -0.21,-0.49 -0.63,-1.45 -0.84,-1.94 -2.42,-7.62 -5.72,-14.93 -9.42,-22.01 5.16,-5.41 10.56,-10.59 15.78,-15.93 l 0.42,-0.21 0.81,-0.39 c 0.02,-1.55 -0.35,-3.07 -0.9,-4.5 0.96,-1.93 2.1,-3.78 3.65,-5.29 7.95,-7.88 15.76,-15.91 23.79,-23.71 -5.65,-6.34 -14.28,-11.83 -14.41,-21.26 0.05,-1.45 0.06,-2.9 0.02,-4.35 0.1,-6.29 4.52,-11.35 9.04,-15.26 15.66,-14.71 31.32,-29.43 46.91,-44.21 0.67,-0.72 1.45,-1.27 2.34,-1.62 1.05,-0.24 1.72,-0.88 2,-1.92 0.69,-1.56 2.22,-2.53 3.38,-3.71 15.56,-14.44 30.77,-29.3 46.49,-43.53 0.91,-0.39 1.58,-1.04 1.99,-1.95 3.54,-3.8 7.6,-7.09 11.24,-10.79 1.25,-1.09 2.3,-2.54 3.91,-3.1 1.05,-0.23 1.7,-0.86 1.98,-1.91 0.68,-1.57 2.22,-2.52 3.39,-3.72 15.55,-14.44 30.77,-29.29 46.49,-43.54 0.92,-0.4 1.59,-1.05 2.02,-1.95 3.33,-3.67 7.24,-6.77 10.72,-10.3 1.4,-1.24 2.59,-2.88 4.38,-3.58 1.04,-0.23 1.72,-0.87 2.01,-1.91 0.95,-1.94 2.9,-3.13 4.38,-4.64 14.09,-13.28 28.19,-26.56 42.28,-39.83 3.6,-3.37 8.3,-5.95 13.33,-5.9 1.12,0.06 2.24,0.07 3.37,0.03 7.33,-0.13 12.62,5.58 17.32,10.43 m 15.29,-4.18 c -5.02,5.1 -10.17,10.08 -15.15,15.22 -2.42,-2.47 -4.94,-4.84 -7.39,-7.28 l -0.2,-0.02 c -3.12,-3.59 -7.25,-7.06 -12.35,-6.52 -5.71,0 -9.52,4.69 -13.35,8.23 -77.92,73.4 -155.83,146.8 -233.75,220.2 -3.1,2.66 -4.96,6.73 -4.39,10.86 0.25,4.83 4.01,8.3 7.34,11.35 2.32,2.91 5.14,5.37 7.72,8.04 43.7,43.6 87.22,87.39 130.93,130.98 8.79,8.54 17.11,17.59 26.2,25.81 2.81,3.05 5.88,6.49 10.22,7.14 4.38,0.92 8.99,-0.82 11.87,-4.19 73.41,-77.95 146.85,-155.88 220.27,-233.83 3.51,-3.82 8.18,-7.59 8.2,-13.27 0.53,-5.01 -2.74,-9.19 -6.36,-12.2 -2.28,-2.82 -4.96,-5.29 -7.5,-7.87 4.7,-4.44 9.2,-9.09 13.81,-13.62 1.72,-1.74 3.67,-3.57 3.97,-6.16 0.84,-3.63 -1.12,-7.22 -3.61,-9.74 -38.99,-39.01 -77.97,-78.05 -117.03,-117 -3.02,-2.97 -5.8,-6.43 -9.72,-8.24 -3.28,-0.72 -7.42,-0.74 -9.73,2.11 m -298.1,292.1 -0.02,0.68 c 2.92,3.53 6.56,6.4 9.52,9.91 -1.05,1.47 -1.82,3.13 -3,4.5 -1.79,-3.2 -4.63,-5.59 -7.41,-7.91 -4.93,5.03 -9.93,9.99 -14.92,14.95 0.48,1.22 1,2.44 1.61,3.61 5.27,11.23 8.83,23.37 9.45,35.8 0.76,9.34 -0.21,18.7 -0.99,27.99 2.13,2.83 4.79,5.26 7.59,7.42 -0.49,2.52 -1.81,4.85 -3.28,6.94 -1.58,-1.89 -2.98,-4.79 -5.56,-5.2 -5.18,4.62 -9.86,9.79 -14.84,14.63 1.48,1.67 2.95,3.35 4.6,4.86 -7.57,7.58 -15.11,15.18 -22.73,22.7 1.09,0.53 2.14,1.89 3.42,0.98 1.09,0.7 2.31,1.12 3.65,1.26 l -1.09,0.29 c 13,9.62 26.12,19.15 39.4,28.38 0.86,1.09 1.59,2.28 2.1,3.59 0.43,-1.03 0.88,-2.04 1.27,-3.06 0.03,1.5 0.11,3.01 0.23,4.52 5.81,-4.98 10.88,-10.76 16.41,-16.03 1.55,1.58 3.17,3.11 4.78,4.64 5.04,-5 10.04,-10.03 15.07,-15.03 -3.98,-5.03 -9,-9.11 -13.35,-13.8 -9.96,-9.74 -19.47,-19.94 -29.71,-29.37 1.34,-1.96 2.39,-4.11 3.37,-6.27 15.98,16.34 32.19,32.44 48.44,48.5 12.15,-1.53 24.54,-2.04 36.69,-0.23 9.44,1.44 18.52,4.59 27.2,8.51 1.21,0.51 2.7,2.45 3.96,1.11 4.98,-4.69 9.64,-9.72 14.59,-14.44 -1.92,-2.2 -3.98,-4.27 -6.07,-6.3 -36.83,-36.82 -73.66,-73.65 -110.48,-110.48 -0.98,-1.46 -2.39,0.01 -3.27,0.78 -3.89,3.65 -7.27,7.84 -11.49,11.13 5.43,-5.71 11.53,-10.85 16.16,-17.27 40.42,40.21 80.63,80.64 121.02,120.88 0.32,0.1 0.95,0.3 1.26,0.4 3.48,-3.15 6.69,-6.59 9.96,-9.94 -39.36,-39.49 -78.88,-78.83 -118.25,-118.32 -1.2,-1.17 -2.5,-2.23 -3.8,-3.29 l 0.29,-0.31 c -3.84,-4.05 -7.92,-7.89 -11.81,-11.9 l -0.59,0.62 c -2.21,-4.19 -6.25,-6.95 -9.44,-10.34 -3.38,3.23 -6.81,6.43 -9.94,9.91 z"
         inkscape:connector-curvature="0"
         style="fill:#1f1a17" />
      <path
         id="path3064"
         d="m 398.69,62.91 c 6.44,-0.24 10.43,7.15 7.87,12.7 -2.29,4.3 -6.25,7.32 -9.55,10.79 -0.94,-0.93 -1.87,-1.86 -2.8,-2.78 3.49,-3.66 8.99,-6.91 8.88,-12.6 0.25,-3.38 -2.33,-5.82 -4.4,-8.11 z"
         inkscape:connector-curvature="0"
         style="fill:#1f1a17" />
    </g>
    <g
       id="#24232337">
      <path
         id="path3067"
         d="m 351.24,39.95 c -0.37,-1.9 3.82,-1.85 3.37,0.03 -1.13,0.04 -2.25,0.03 -3.37,-0.03 z"
         inkscape:connector-curvature="0"
         style="opacity:0.220000024;fill:#242323" />
    </g>
    <g
       id="#2c2825ff">
      <path
         id="path3070"
         d="m 387.22,46.23 c 2.31,-2.85 6.45,-2.83 9.73,-2.11 3.92,1.81 6.7,5.27 9.72,8.24 39.06,38.95 78.04,77.99 117.03,117 2.49,2.52 4.45,6.11 3.61,9.74 -0.3,2.59 -2.25,4.42 -3.97,6.16 -4.61,4.53 -9.11,9.18 -13.81,13.62 -2.81,-2.81 -5.62,-5.6 -8.42,-8.41 3.54,-4.27 9.5,-7.43 10.13,-13.44 1.15,-7.01 -6.81,-12.16 -13.06,-11.19 0.17,0.44 0.53,1.32 0.71,1.76 -4.09,2.68 -7.19,6.52 -10.64,9.91 -2.76,-2.61 -5.44,-5.32 -8.12,-8.02 4.02,-4.61 11.03,-8.46 10.2,-15.53 -0.02,-4.62 -4.58,-8.13 -8.99,-7.96 -6.17,1.06 -9.63,6.76 -13.89,10.73 -2.8,-2.69 -5.53,-5.45 -8.28,-8.19 2.99,-3.16 6.34,-5.97 9.1,-9.32 3.82,-5.51 -0.69,-14.66 -7.69,-14.03 -6.22,1.02 -9.66,6.78 -13.96,10.74 -1.91,-1.85 -3.78,-3.73 -5.66,-5.6 -0.7,-0.68 -1.39,-1.36 -2.07,-2.04 2.88,-3.93 7.07,-6.84 9.28,-11.23 2.91,-5.59 -2.12,-13.36 -8.46,-12.73 -6.19,1.16 -9.61,6.89 -13.97,10.81 -2.64,-2.61 -5.24,-5.25 -7.86,-7.86 3.4,-5.07 10.75,-8.36 10.2,-15.32 0.14,-4.89 -4.72,-8.85 -9.41,-8.52 -5.97,1.51 -9.48,6.92 -13.72,10.92 -2.65,-2.65 -5.29,-5.3 -7.94,-7.96 3.3,-3.47 7.26,-6.49 9.55,-10.79 2.56,-5.55 -1.43,-12.94 -7.87,-12.7 -6.61,0.32 -10.1,6.69 -14.56,10.65 -4,-4.06 -8.06,-8.06 -12.06,-12.11 4.98,-5.14 10.13,-10.12 15.15,-15.22 z"
         inkscape:connector-curvature="0"
         style="fill:#2c2825" />
    </g>
    <g
       id="#ffd755ff">
      <path
         id="path3073"
         d="m 338.78,55.86 c 3.83,-3.54 7.64,-8.23 13.35,-8.23 5.1,-0.54 9.23,2.93 12.35,6.52 -5.19,-1.11 -10.99,-0.53 -14.79,3.53 -77.98,73.68 -155.85,147.48 -233.82,221.17 -3.05,2.98 -6.74,5.68 -8.24,9.84 -1.17,3.1 -0.36,6.47 0.35,9.58 -3.33,-3.05 -7.09,-6.52 -7.34,-11.35 -0.57,-4.13 1.29,-8.2 4.39,-10.86 77.92,-73.4 155.83,-146.8 233.75,-220.2 z"
         inkscape:connector-curvature="0"
         style="fill:#ffd755" />
      <path
         id="path3075"
         d="m 517.03,206.75 c 3.62,3.01 6.89,7.19 6.36,12.2 -0.02,5.68 -4.69,9.45 -8.2,13.27 -73.42,77.95 -146.86,155.88 -220.27,233.83 -2.88,3.37 -7.49,5.11 -11.87,4.19 -4.34,-0.65 -7.41,-4.09 -10.22,-7.14 5.13,1.77 11.37,1.14 15.01,-3.25 33.34,-34.99 66.39,-70.27 99.73,-105.27 7.15,-8.15 15.18,-15.49 22.24,-23.71 9.83,-9.87 19.01,-20.35 28.85,-30.21 7.3,-8.34 15.41,-15.91 22.7,-24.26 15.81,-16.24 31.03,-33.03 46.84,-49.27 2.71,-2.95 5.65,-5.76 7.8,-9.18 2.02,-3.38 1.74,-7.49 1.03,-11.2 z"
         inkscape:connector-curvature="0"
         style="fill:#ffd755" />
    </g>
    <g
       id="#dededdff">
      <path
         id="path3078"
         d="m 467.45,156.73 c 4.26,-3.97 7.72,-9.67 13.89,-10.73 2.51,2.05 5.13,4.64 4.99,8.17 0.19,5.58 -5.14,8.84 -8.57,12.42 l -0.59,-0.16 c -3.18,-3.3 -6.36,-6.59 -9.72,-9.7 z"
         inkscape:connector-curvature="0"
         style="fill:#dededd" />
    </g>
    <g
       id="#f0ba00ff">
      <path
         id="path3081"
         d="m 349.69,57.68 c 3.8,-4.06 9.6,-4.64 14.79,-3.53 l 0.2,0.02 c 2.45,2.44 4.97,4.81 7.39,7.28 4,4.05 8.06,8.05 12.06,12.11 3.34,3.37 6.69,6.73 10.08,10.06 0.93,0.92 1.86,1.85 2.8,2.78 2.65,2.66 5.29,5.31 7.94,7.96 3.36,3.36 6.72,6.73 10.09,10.09 0.94,0.94 1.88,1.88 2.84,2.83 2.62,2.61 5.22,5.25 7.86,7.86 3.42,3.34 6.79,6.73 10.14,10.14 1,1.01 2,2.01 3.01,3.01 0.68,0.68 1.37,1.36 2.07,2.04 -14.36,13.88 -28.21,28.29 -42.53,42.22 -0.81,0.55 -1.17,1.53 -0.44,2.35 2.26,3.57 4.75,7.08 5.96,11.19 5.33,15.93 2.67,33.21 -1.78,49.01 -7.73,26.74 -21.34,51.33 -36.42,74.56 -32.46,48.62 -73.33,91.41 -119.12,127.63 C 202.92,393.7 159.4,349.91 115.7,306.31 c -2.58,-2.67 -5.4,-5.13 -7.72,-8.04 -0.71,-3.11 -1.52,-6.48 -0.35,-9.58 1.5,-4.16 5.19,-6.86 8.24,-9.84 77.97,-73.69 155.84,-147.49 233.82,-221.17 m -16.76,114.2 c -21.97,6.52 -42.48,17.11 -61.96,29.03 -26.36,16.27 -50.69,35.64 -73.54,56.52 -20.57,19.17 -40.02,39.6 -57.6,61.56 14.19,14.73 28.87,28.99 43.32,43.47 8.87,-7.52 16.99,-15.87 25.21,-24.07 28.27,-28.96 53.8,-60.82 73.99,-95.97 9.86,-17.48 18.48,-35.84 23.65,-55.29 0.56,-2.21 3.32,-2.27 5.03,-3.19 17.7,-6.79 36.87,-12.45 55.96,-9.23 12.13,1.93 23.15,10.4 27.08,22.19 3.73,9.65 2.51,20.06 2.25,30.12 1.72,-6.53 2.53,-13.28 2.85,-20.01 0.25,-9.36 -1.24,-19.32 -7.04,-26.96 -4.94,-6.78 -12.95,-10.69 -21.1,-11.95 -12.8,-1.68 -25.78,0.19 -38.1,3.78 z"
         inkscape:connector-curvature="0"
         style="fill:#f0ba00" />
    </g>
    <g
       id="#838281ff">
      <path
         id="path3084"
         d="m 384.13,73.56 c 4.46,-3.96 7.95,-10.33 14.56,-10.65 2.07,2.29 4.65,4.73 4.4,8.11 0.11,5.69 -5.39,8.94 -8.88,12.6 -3.39,-3.33 -6.74,-6.69 -10.08,-10.06 z"
         inkscape:connector-curvature="0"
         style="fill:#838281" />
      <path
         id="path3086"
         d="m 56.21,481.45 c 11.27,-4.05 24.6,-0.04 32.14,9.16 4.84,5.56 7.15,12.91 7.25,20.22 l -1.08,-0.71 c -13.28,-9.23 -26.4,-18.76 -39.4,-28.38 l 1.09,-0.29 z"
         inkscape:connector-curvature="0"
         style="fill:#838281" />
    </g>
    <g
       id="#211c19ff">
      <path
         id="path3089"
         d="m 418.67,83.44 c 4.69,-0.33 9.55,3.63 9.41,8.52 0.55,6.96 -6.8,10.25 -10.2,15.32 -0.96,-0.95 -1.9,-1.89 -2.84,-2.83 3.45,-3.68 8.79,-6.86 8.93,-12.46 0.16,-3.71 -2.58,-6.47 -5.3,-8.55 z"
         inkscape:connector-curvature="0"
         style="fill:#211c19" />
      <path
         id="path3091"
         d="m 460.58,125.19 c 7,-0.63 11.51,8.52 7.69,14.03 -2.76,3.35 -6.11,6.16 -9.1,9.32 -0.82,-0.83 -1.64,-1.66 -2.45,-2.49 3.5,-3.82 9.24,-7.16 8.79,-13.06 -0.02,-3.36 -2.56,-5.78 -4.93,-7.8 z"
         inkscape:connector-curvature="0"
         style="fill:#211c19" />
      <path
         id="path3093"
         d="m 498.18,165.84 c 6.25,-0.97 14.21,4.18 13.06,11.19 -0.63,6.01 -6.59,9.17 -10.13,13.44 -0.93,-0.94 -1.84,-1.88 -2.73,-2.83 3.42,-3.74 9.02,-6.94 8.74,-12.69 0.09,-4.08 -3.75,-9.33 -8.23,-7.35 -0.18,-0.44 -0.54,-1.32 -0.71,-1.76 z"
         inkscape:connector-curvature="0"
         style="fill:#211c19" />
    </g>
    <g
       id="#969594ff">
      <path
         id="path3096"
         d="m 404.95,94.36 c 4.24,-4 7.75,-9.41 13.72,-10.92 2.72,2.08 5.46,4.84 5.3,8.55 -0.14,5.6 -5.48,8.78 -8.93,12.46 -3.37,-3.36 -6.73,-6.73 -10.09,-10.09 z"
         inkscape:connector-curvature="0"
         style="fill:#969594" />
      <path
         id="path3098"
         d="m 74.75,362.5 c 2.04,1.91 4.06,3.86 5.88,5.99 6.92,13.1 11.21,27.73 11.6,42.59 0.13,8.08 -0.04,16.2 -1.28,24.2 -2.8,-2.16 -5.46,-4.59 -7.59,-7.42 0.78,-9.29 1.75,-18.65 0.99,-27.99 -0.62,-12.43 -4.18,-24.57 -9.45,-35.8 l -0.15,-1.57 z"
         inkscape:connector-curvature="0"
         style="fill:#969594" />
      <path
         id="path3100"
         d="m 92.67,380.75 c 5.28,4.58 10.04,9.7 15.04,14.59 21.83,21.78 43.68,43.55 65.51,65.33 11.82,11.93 23.95,23.56 35.55,35.7 l -1.75,-0.28 c -8.68,-3.92 -17.76,-7.07 -27.2,-8.51 -12.15,-1.81 -24.54,-1.3 -36.69,0.23 -16.25,-16.06 -32.46,-32.16 -48.44,-48.5 6.75,-18.9 4.17,-39.87 -2.02,-58.56 z"
         inkscape:connector-curvature="0"
         style="fill:#969594" />
    </g>
    <g
       id="#1d1c1bab">
      <path
         id="path3103"
         d="m 289.24,92.23 c -0.33,-1.7 0.34,-2.34 2.01,-1.91 -0.29,1.04 -0.97,1.68 -2.01,1.91 z"
         inkscape:connector-curvature="0"
         style="opacity:0.670000024;fill:#1d1c1b" />
      <path
         id="path3105"
         d="m 220.26,157.23 c -0.37,-1.67 0.28,-2.31 1.98,-1.91 -0.28,1.05 -0.93,1.68 -1.98,1.91 z"
         inkscape:connector-curvature="0"
         style="opacity:0.670000024;fill:#1d1c1b" />
      <path
         id="path3107"
         d="m 151.25,222.23 c -0.34,-1.69 0.32,-2.33 2,-1.92 -0.28,1.04 -0.95,1.68 -2,1.92 z"
         inkscape:connector-curvature="0"
         style="opacity:0.670000024;fill:#1d1c1b" />
    </g>
    <g
       id="#221d1aff">
      <path
         id="path3110"
         d="m 439.71,104.33 c 6.34,-0.63 11.37,7.14 8.46,12.73 -2.21,4.39 -6.4,7.3 -9.28,11.23 -1.01,-1 -2.01,-2 -3.01,-3.01 3.34,-3.71 8.63,-6.78 8.88,-12.29 0.26,-3.69 -2.42,-6.5 -5.05,-8.66 z"
         inkscape:connector-curvature="0"
         style="fill:#221d1a" />
    </g>
    <g
       id="#aaa9a9ff">
      <path
         id="path3113"
         d="m 425.74,115.14 c 4.36,-3.92 7.78,-9.65 13.97,-10.81 2.63,2.16 5.31,4.97 5.05,8.66 -0.25,5.51 -5.54,8.58 -8.88,12.29 -3.35,-3.41 -6.72,-6.8 -10.14,-10.14 z"
         inkscape:connector-curvature="0"
         style="fill:#aaa9a9" />
      <path
         id="path3115"
         d="m 71.87,456.51 c 0.18,0.18 0.54,0.53 0.73,0.7 0.91,0.89 1.84,1.77 2.72,2.71 -5.65,6.5 -12.28,12.08 -18.02,18.52 -1.6,0.52 -3.16,1.16 -4.74,1.75 -1.28,0.91 -2.33,-0.45 -3.42,-0.98 7.62,-7.52 15.16,-15.12 22.73,-22.7 z"
         inkscape:connector-curvature="0"
         style="fill:#aaa9a9" />
      <path
         id="path3117"
         d="m 78.39,462.93 c 12.04,12.07 24.16,24.07 36.14,36.21 -5.53,5.27 -10.6,11.05 -16.41,16.03 -0.12,-1.51 -0.2,-3.02 -0.23,-4.52 0.77,-14.59 -9.91,-28.58 -23.98,-32.17 -3.06,-0.84 -6.24,-1.14 -9.41,-1.26 4.11,-5.24 9.14,-9.65 13.89,-14.29 z"
         inkscape:connector-curvature="0"
         style="fill:#aaa9a9" />
    </g>
    <g
       id="#1c1b1a54">
      <path
         id="path3120"
         d="m 272.12,108.06 c -0.43,-1.8 0.24,-2.45 2.02,-1.95 -0.43,0.9 -1.1,1.55 -2.02,1.95 z"
         inkscape:connector-curvature="0"
         style="opacity:0.330000036;fill:#1c1b1a" />
      <path
         id="path3122"
         d="m 203.12,173.07 c -0.47,-1.77 0.2,-2.42 1.99,-1.95 -0.41,0.91 -1.08,1.56 -1.99,1.95 z"
         inkscape:connector-curvature="0"
         style="opacity:0.330000036;fill:#1c1b1a" />
    </g>
    <g
       id="#c2c1c1ff">
      <path
         id="path3125"
         d="m 446.62,135.93 c 4.3,-3.96 7.74,-9.72 13.96,-10.74 2.37,2.02 4.91,4.44 4.93,7.8 0.45,5.9 -5.29,9.24 -8.79,13.06 -3.29,-3.45 -6.67,-6.82 -10.1,-10.12 z"
         inkscape:connector-curvature="0"
         style="fill:#c2c1c1" />
    </g>
    <g
       id="#ffcf33ff">
      <path
         id="path3128"
         d="m 398.43,172.55 c 14.32,-13.93 28.17,-28.34 42.53,-42.22 1.88,1.87 3.75,3.75 5.66,5.6 3.43,3.3 6.81,6.67 10.1,10.12 0.81,0.83 1.63,1.66 2.45,2.49 2.75,2.74 5.48,5.5 8.28,8.19 3.36,3.11 6.54,6.4 9.72,9.7 0.98,1.02 1.96,2.05 2.96,3.06 2.68,2.7 5.36,5.41 8.12,8.02 3.5,3.25 6.88,6.63 10.13,10.13 0.89,0.95 1.8,1.89 2.73,2.83 2.8,2.81 5.61,5.6 8.42,8.41 2.54,2.58 5.22,5.05 7.5,7.87 0.71,3.71 0.99,7.82 -1.03,11.2 -2.15,3.42 -5.09,6.23 -7.8,9.18 -15.81,16.24 -31.03,33.03 -46.84,49.27 -7.29,8.35 -15.4,15.92 -22.7,24.26 -9.84,9.86 -19.02,20.34 -28.85,30.21 -7.06,8.22 -15.09,15.56 -22.24,23.71 -33.34,35 -66.39,70.28 -99.73,105.27 -3.64,4.39 -9.88,5.02 -15.01,3.25 -9.09,-8.22 -17.41,-17.27 -26.2,-25.81 45.79,-36.22 86.66,-79.01 119.12,-127.63 15.08,-23.23 28.69,-47.82 36.42,-74.56 4.45,-15.8 7.11,-33.08 1.78,-49.01 -1.21,-4.11 -3.7,-7.62 -5.96,-11.19 -0.73,-0.82 -0.37,-1.8 0.44,-2.35 z"
         inkscape:connector-curvature="0"
         style="fill:#ffcf33" />
      <path
         id="path3130"
         d="m 332.93,171.88 c 12.32,-3.59 25.3,-5.46 38.1,-3.78 8.15,1.26 16.16,5.17 21.1,11.95 5.8,7.64 7.29,17.6 7.04,26.96 -0.32,6.73 -1.13,13.48 -2.85,20.01 0.26,-10.06 1.48,-20.47 -2.25,-30.12 -3.93,-11.79 -14.95,-20.26 -27.08,-22.19 -19.09,-3.22 -38.26,2.44 -55.96,9.23 -1.71,0.92 -4.47,0.98 -5.03,3.19 -5.17,19.45 -13.79,37.81 -23.65,55.29 -20.19,35.15 -45.72,67.01 -73.99,95.97 -8.22,8.2 -16.34,16.55 -25.21,24.07 -14.45,-14.48 -29.13,-28.74 -43.32,-43.47 17.58,-21.96 37.03,-42.39 57.6,-61.56 22.85,-20.88 47.18,-40.25 73.54,-56.52 19.48,-11.92 39.99,-22.51 61.96,-29.03 z"
         inkscape:connector-curvature="0"
         style="fill:#ffcf33" />
    </g>
    <g
       id="#231e1bff">
      <path
         id="path3133"
         d="m 481.34,146 c 4.41,-0.17 8.97,3.34 8.99,7.96 0.83,7.07 -6.18,10.92 -10.2,15.53 -1,-1.01 -1.98,-2.04 -2.96,-3.06 l 0.59,0.16 c 3.43,-3.58 8.76,-6.84 8.57,-12.42 0.14,-3.53 -2.48,-6.12 -4.99,-8.17 z"
         inkscape:connector-curvature="0"
         style="fill:#231e1b" />
    </g>
    <g
       id="#ffffffff">
      <path
         id="path3136"
         d="m 498.89,167.6 c 4.48,-1.98 8.32,3.27 8.23,7.35 0.28,5.75 -5.32,8.95 -8.74,12.69 -3.25,-3.5 -6.63,-6.88 -10.13,-10.13 3.45,-3.39 6.55,-7.23 10.64,-9.91 z"
         inkscape:connector-curvature="0"
         style="fill:#ffffff" />
      <path
         id="path3138"
         d="m 108.5,338.76 0.59,-0.62 c 3.89,4.01 7.97,7.85 11.81,11.9 l -0.29,0.31 c -3.35,3.47 -6.94,6.7 -10.19,10.27 -4.63,6.42 -10.73,11.56 -16.16,17.27 -0.52,0.48 -1.56,1.44 -2.08,1.92 l 0.49,0.94 c 6.19,18.69 8.77,39.66 2.02,58.56 -0.98,2.16 -2.03,4.31 -3.37,6.27 -4.95,5.14 -10.09,10.09 -15.11,15.17 0.54,0.54 1.63,1.63 2.18,2.18 -4.75,4.64 -9.78,9.05 -13.89,14.29 -2.42,0.26 -4.83,0.67 -7.2,1.22 5.74,-6.44 12.37,-12.02 18.02,-18.52 -0.88,-0.94 -1.81,-1.82 -2.72,-2.71 5.02,-5 10.14,-9.9 15.07,-14.99 1.47,-2.09 2.79,-4.42 3.28,-6.94 1.24,-8 1.41,-16.12 1.28,-24.2 -0.39,-14.86 -4.68,-29.49 -11.6,-42.59 4.98,-5.04 10.08,-9.96 14.99,-15.07 1.18,-1.37 1.95,-3.03 3,-4.5 3.11,-3.55 6.72,-6.64 9.88,-10.16 z"
         inkscape:connector-curvature="0"
         style="fill:#ffffff" />
    </g>
    <g
       id="#040100ff">
      <path
         id="path3141"
         d="m 535.01,180.86 c -1.5,-1.98 -1.5,-4.78 0.06,-6.73 0.54,2.2 0.52,4.54 -0.06,6.73 z"
         inkscape:connector-curvature="0"
         style="fill:#040100" />
    </g>
    <g
       id="#2625253e">
      <path
         id="path3144"
         d="m 92.94,287.67 c -1.92,0.04 -1.89,-4.4 0.02,-4.35 0.04,1.45 0.03,2.9 -0.02,4.35 z"
         inkscape:connector-curvature="0"
         style="opacity:0.239999988;fill:#262525" />
    </g>
    <g
       id="#4d4948ff">
      <path
         id="path3147"
         d="m 89.12,338.33 c 3.13,-3.48 6.56,-6.68 9.94,-9.91 3.19,3.39 7.23,6.15 9.44,10.34 -3.16,3.52 -6.77,6.61 -9.88,10.16 -2.96,-3.51 -6.6,-6.38 -9.52,-9.91 l 0.02,-0.68 z"
         inkscape:connector-curvature="0"
         style="fill:#4d4948" />
      <path
         id="path3149"
         d="m 110.42,360.62 c 3.25,-3.57 6.84,-6.8 10.19,-10.27 1.3,1.06 2.6,2.12 3.8,3.29 39.37,39.49 78.89,78.83 118.25,118.32 -3.27,3.35 -6.48,6.79 -9.96,9.94 -0.31,-0.1 -0.94,-0.3 -1.26,-0.4 -40.39,-40.24 -80.6,-80.67 -121.02,-120.88 z"
         inkscape:connector-curvature="0"
         style="fill:#4d4948" />
      <path
         id="path3151"
         d="m 67.27,451.65 c 4.98,-4.84 9.66,-10.01 14.84,-14.63 2.58,0.41 3.98,3.31 5.56,5.2 -4.93,5.09 -10.05,9.99 -15.07,14.99 -0.19,-0.17 -0.55,-0.52 -0.73,-0.7 -1.65,-1.51 -3.12,-3.19 -4.6,-4.86 z"
         inkscape:connector-curvature="0"
         style="fill:#4d4948" />
      <path
         id="path3153"
         d="m 76.21,460.75 c 5.02,-5.08 10.16,-10.03 15.11,-15.17 10.24,9.43 19.75,19.63 29.71,29.37 4.35,4.69 9.37,8.77 13.35,13.8 -5.03,5 -10.03,10.03 -15.07,15.03 -1.61,-1.53 -3.23,-3.06 -4.78,-4.64 C 102.55,487 90.43,475 78.39,462.93 c -0.55,-0.55 -1.64,-1.64 -2.18,-2.18 z"
         inkscape:connector-curvature="0"
         style="fill:#4d4948" />
    </g>
    <g
       id="#36343385">
      <path
         id="path3156"
         d="m 79.58,343.03 c -0.98,-0.8 -1.19,-3.77 0.37,-3.76 0.36,1.17 0.38,2.35 0.05,3.55 l -0.42,0.21 z"
         inkscape:connector-curvature="0"
         style="opacity:0.519999964;fill:#363433" />
    </g>
    <g
       id="#605d5cff">
      <path
         id="path3159"
         d="m 73.29,360.46 c 4.99,-4.96 9.99,-9.92 14.92,-14.95 2.78,2.32 5.62,4.71 7.41,7.91 -4.91,5.11 -10.01,10.03 -14.99,15.07 -1.82,-2.13 -3.84,-4.08 -5.88,-5.99 l 0.15,1.57 c -0.61,-1.17 -1.13,-2.39 -1.61,-3.61 z"
         inkscape:connector-curvature="0"
         style="fill:#605d5c" />
      <path
         id="path3161"
         d="m 105.75,366.76 c 0.88,-0.77 2.29,-2.24 3.27,-0.78 36.82,36.83 73.65,73.66 110.48,110.48 2.09,2.03 4.15,4.1 6.07,6.3 -4.95,4.72 -9.61,9.75 -14.59,14.44 -1.26,1.34 -2.75,-0.6 -3.96,-1.11 l 1.75,0.28 c -11.6,-12.14 -23.73,-23.77 -35.55,-35.7 -21.83,-21.78 -43.68,-43.55 -65.51,-65.33 -5,-4.89 -9.76,-10.01 -15.04,-14.59 l -0.49,-0.94 c 0.52,-0.48 1.56,-1.44 2.08,-1.92 4.22,-3.29 7.6,-7.48 11.49,-11.13 z"
         inkscape:connector-curvature="0"
         style="fill:#605d5c" />
    </g>
    <g
       id="#26232281">
      <path
         id="path3164"
         d="m 73.22,380.97 c 0.21,0.49 0.63,1.45 0.84,1.94 l -0.9,-0.14 -0.43,-0.99 0.49,-0.81 z"
         inkscape:connector-curvature="0"
         style="opacity:0.510000012;fill:#262322" />
    </g>
    <g
       id="#2d2b2a70">
      <path
         id="path3167"
         d="m 74.16,384.95 c 0.23,0.48 0.68,1.43 0.91,1.9 l -0.9,-0.12 -0.46,-0.97 0.45,-0.81 z"
         inkscape:connector-curvature="0"
         style="opacity:0.439999988;fill:#2d2b2a" />
    </g>
    <g
       id="#050202ff">
      <path
         id="path3170"
         d="m 76.41,389.18 c 1.44,1.31 0.97,3.31 0.06,4.78 -0.19,-0.41 -0.58,-1.22 -0.77,-1.63 0.18,-0.79 0.53,-2.36 0.71,-3.15 z"
         inkscape:connector-curvature="0"
         style="fill:#050202" />
    </g>
    <g
       id="#22212046">
      <path
         id="path3173"
         d="m 76.29,395.21 0.32,0.56 c 0.65,8.08 0.59,16.24 -0.05,24.33 l -0.42,0.45 c -0.74,-5.85 0.97,-11.67 0.19,-17.51 -0.3,-2.6 -0.54,-5.24 -0.04,-7.83 z"
         inkscape:connector-curvature="0"
         style="opacity:0.270000024;fill:#222120" />
    </g>
    <g
       id="#020100ff">
      <path
         id="path3176"
         d="m 76.61,395.77 c 1.97,2.3 1.3,5.43 1.36,8.21 -0.2,4.93 0.21,9.88 -0.16,14.81 -0.31,0.33 -0.94,0.98 -1.25,1.31 0.64,-8.09 0.7,-16.25 0.05,-24.33 z"
         inkscape:connector-curvature="0"
         style="fill:#020100" />
    </g>
    <g
       id="#2c2b2b5e">
      <path
         id="path3179"
         d="m 75.26,429.96 c -0.99,-1.17 -1.11,-4.54 0.8,-4.62 0.1,1.57 0.1,3.25 -0.8,4.62 z"
         inkscape:connector-curvature="0"
         style="opacity:0.370000024;fill:#2c2b2b" />
    </g>
    <g
       id="#0d0703ff">
      <path
         id="path3182"
         d="m 57.3,478.44 c 2.37,-0.55 4.78,-0.96 7.2,-1.22 3.17,0.12 6.35,0.42 9.41,1.26 14.07,3.59 24.75,17.58 23.98,32.17 -0.39,1.02 -0.84,2.03 -1.27,3.06 -0.51,-1.31 -1.24,-2.5 -2.1,-3.59 l 1.08,0.71 c -0.1,-7.31 -2.41,-14.66 -7.25,-20.22 -7.54,-9.2 -20.87,-13.21 -32.14,-9.16 -1.34,-0.14 -2.56,-0.56 -3.65,-1.26 1.58,-0.59 3.14,-1.23 4.74,-1.75 z"
         inkscape:connector-curvature="0"
         style="fill:#0d0703" />
      <path
         id="path3184"
         d="m 149.1,493.18 c 6.93,-0.43 13.88,-0.02 20.82,-0.23 2.39,0.06 5.3,-0.49 6.85,1.83 -8.93,-1 -17.95,-0.85 -26.88,0.02 -0.2,-0.4 -0.6,-1.21 -0.79,-1.62 z"
         inkscape:connector-curvature="0"
         style="fill:#0d0703" />
    </g>
    <g
       id="#f5f6f5ff">
      <path
         id="path3187"
         d="m 137.25,496.79 c 0.39,-0.33 1.16,-0.99 1.54,-1.32 2.81,0.05 5.63,0.07 8.43,-0.28 -2.51,2.93 -6.65,1.5 -9.97,1.6 z"
         inkscape:connector-curvature="0"
         style="fill:#f5f6f5" />
    </g>
    <g
       id="#b6b5b3ff">
      <path
         id="path3190"
         d="m 222.19,511.14 c 2.9,-1.71 0.37,3.29 0,0 z"
         inkscape:connector-curvature="0"
         style="fill:#b6b5b3" />
    </g>
  </g>
</svg>
