<svg xmlns="http://www.w3.org/2000/svg" width="396pt" height="127pt" viewBox="0 0 396 127"><path fill="#feffbb" d="M367.74 8.52c7.9-5.39 19.11-3 28.26-4.65v3.1c-9.68-2.16-18.7 3.85-28.26 1.55z"/><path d="M367.74 8.52c9.56 2.3 18.58-3.71 28.26-1.55v74.95c-13.61-.99-26.62 3.52-40.06 3.97 2.75-5.99 8.9-10.68 8.11-17.87-12.03-2.74-12.03 13.98-18.91 20.22-2.92-8.06 2.98-25.78-12.12-20.25.42 9.2 3.05 18.09 4.02 27.21-2.06-6.33-10.31-1.92-15.15-1.96-2.15-3.7-4.26-7.44-5.91-11.39 3.9-5.48 10.19-8.59 14.29-13.89-11.68-4.06-16.44 7.69-24.48 12.84-2.96-5.95 14.77-31.03-4.43-24.69-3.68 13.13-5.72 26.7-9.46 39.82-6.38.69-12.93.78-19.08 2.75 4.22-7.12-.48-23.65 12.22-21.57 7.48 2.81 6.28-5.18 7.7-9.38-4.69-3.32-15.56 9.78-12.79.27-14.87-4.27-10.62 15.05-14.93 24-.48 3.07-2.76 8.02 2.18 7.41-19.21 3.16-38.44 5.55-57.69 8.2-42.188 7.128 6.929-1.01-41.451 6.509-7.2 2.89-16.659-2.479-23.069 1.911l-.15-.82c.9-2.2-46.606-2.662-45.456-4.732 4.71-10.28-3.883-14.359-2.003-24.489 1.33-13.58 1.751-22.505-12.269-32.865 43.83-5.52 161.288-26.795 205.238-30.795 23.34-8.36 50.17-6 73.05-13.44 1.43-.23 2.88-.38 4.34-.37m181.27 52.09c-5.1 14.95-7.23 31.42-11.33 46.85 19.88 6.95 12.05-21.34 18.93-29.68 2.21 5.99 2.59 12.47 4.37 18.59 12.17 3.89 14.08-11.63 20.73-18.02-1.22 9.85-5.08 19.27-5.97 29.11 4.1-.78 12.3 3.02 12.82-3.08 2.69-14.65 7.79-28.93 9.19-43.75-17.57-6.48-20.87 13.22-29.72 23.02-3.4-11.1-1.45-29.87-19.02-23.04m58.13 15.29c-6.04-1.71-7.48 4.21-7.48 8.46 4.26-.58 18.48-5.77 17.02 3.01-8.14 1.27-20.82.79-23.01 11.16-2.28 11.67 12.69 12.03 18.87 6-.89 5.38 6.37 1.96 8.95 2.87 2.7-7.02 3.16-14.71 5.12-21.95 2.4-11.04-12.93-10.88-19.47-9.55z" fill="#fcfe4c"/><path fill="#41a802" d="M181.27 52.09c17.57-6.83 15.62 11.94 19.02 23.04 8.85-9.8 12.15-29.5 29.72-23.02-1.4 14.82-6.5 29.1-9.19 43.75-.52 6.1-8.72 2.3-12.82 3.08.89-9.84 4.75-19.26 5.97-29.11-6.65 6.39-8.56 21.91-20.73 18.02-1.78-6.12-2.16-12.6-4.37-18.59-6.88 8.34.95 36.63-18.93 29.68 4.1-15.43 6.23-31.9 11.33-46.85z"/><path fill="#080804" d="M301.36 56.11c19.2-6.34 1.47 18.74 4.43 24.69 8.04-5.15 12.8-16.9 24.48-12.84-4.1 5.3-10.39 8.41-14.29 13.89 1.65 3.95 3.76 7.69 5.91 11.39 8.89 7.72-9.57 9.79-10 1.67-.88-2.98-1.81-5.98-3.26-8.74-6.32-.67-6.67 8.59-7.89 12.67-3.28.68-6.64.29-9.85-.42l1.01-2.49c3.74-13.12 5.78-26.69 9.46-39.82z"/><path fill="#050501" d="M239.4 67.38c6.54-1.33 21.87-1.49 19.47 9.55-1.96 7.24-2.42 14.93-5.12 21.95-2.58-.91-9.84 2.51-8.95-2.87-6.18 6.03-21.15 5.67-18.87-6 2.19-10.37 14.87-9.89 23.01-11.16 1.46-8.78-12.76-3.59-17.02-3.01 0-4.25 1.44-10.17 7.48-8.46m4.06 18.07c-3.88.4-10.84 2.35-6.82 7.88 6.4 7.05 16.63-11.49 6.82-7.88z"/><path fill="#070702" d="M265.02 92c4.31-8.95.06-28.27 14.93-24-2.77 9.51 8.1-3.59 12.79-.27-1.42 4.2-.22 12.19-7.7 9.38-12.7-2.08-8 14.45-12.22 21.57-1.85.41-3.74.53-5.62.73-4.94.61-2.66-4.34-2.18-7.41z"/><path fill="#0c0d0a" d="M333.02 67.99c15.1-5.53 9.2 12.19 12.12 20.25 6.88-6.24 6.88-22.96 18.91-20.22.79 7.19-5.36 11.88-8.11 17.87-.29.54-.87 1.6-1.16 2.13-7.35 8.56-9.46 27.08-24.87 21.97 1.51-5.33 7.61-8.88 7.13-14.79-.97-9.12-3.6-18.01-4.02-27.21z"/><path fill="#fcfeb8" d="M355.94 85.89c13.44-.45 26.45-4.96 40.06-3.97v2.05c-13.98-1.54-27.59 5.67-41.22 4.05.29-.53.87-1.59 1.16-2.13z"/><path fill="#f6f745" d="M243.46 85.45c9.81-3.61-.42 14.93-6.82 7.88-4.02-5.53 2.94-7.48 6.82-7.88z"/><path fill="#ecf07d" d="M300.74 98.84c1.22-4.08 1.57-13.34 7.89-12.67 1.45 2.76 2.38 5.76 3.26 8.74-3.96.61-8.1 1.1-11.15 3.93z"/><g><path d="M52.872 2.14c-.433-.244-1.114-.349-1.563-.084.317.322 1.124.224 1.563.084z" opacity=".31" fill="#262625"/><g fill="#1f1a17"><path d="M57.951 5.754c-1.501-1.21-2.655-2.932-4.643-3.515-.734.271-1.52.14-2.262-.012-.942.145-1.746.694-2.405 1.301-2.246 2.061-4.495 4.12-6.752 6.175-.293.212-.363.551-.476.856l-.412-.057c-8.1 7.464-16.258 14.878-24.382 22.322-1.052.967-2.348 1.916-2.553 3.365.42.48.42 1.168.016 1.656.46 1.97 2.504 3.065 3.876 4.48-.955.893-2.069 1.737-2.534 2.954-.767 1.84-.215 4.029 1.305 5.417 20.137 19.555 40.28 39.104 60.423 58.656 1.458 1.555 3.981 2.086 6.053 1.343 1.797-.627 2.894-2.16 4.296-3.277 2.19 2.039 4.404 4.061 6.631 6.066.683.645 1.676.799 2.612.844 1.399 1.208 2.693 2.514 4.108 3.705.428.044.812-.278 1.205-.406 2.628-1.257 5.466-2.121 8.393-2.558.417-.571 1.2-.435 1.843-.45 1.867.052 3.736-.049 5.601.057l-.213.399c.242.027.482.059.718.096.753.086 1.512.081 2.268.069l.414.325c1.622 1.461 3.223 2.945 4.834 4.416.42-.384.839-.763 1.262-1.141 1.318 1.237 2.642 2.472 4.005 3.668 1.533-.868 2.94-1.919 4.412-2.873 4.17-2.694 8.283-5.461 12.436-8.175-2.168-1.926-4.282-3.899-6.421-5.852.422-.374.842-.748 1.267-1.117-1.77-1.616-3.532-3.24-5.313-4.849l.194-.517c-.242-.337-.242-.75-.215-1.137.013-.396-.003-.787-.022-1.178l-.113-.111-.336-.322c-.1-1.213.011-2.43-.043-3.643.016-.684-.164-1.454.366-2.02l.086-.138-.048-.307c-.245-.362-.371-.854.016-1.176l.191.775c.067-.448.167-.895.169-1.348l.245-.467.027-.502.226-.477c.651-1.875 1.539-3.673 2.534-5.414-1.388-1.331-2.841-2.605-4.245-3.919l-.113-.052-.218-.096c-.005-.381.094-.755.242-1.107-.258-.475-.565-.93-.982-1.301-2.139-1.938-4.239-3.914-6.4-5.833 1.52-1.56 3.841-2.91 3.876-5.23-.013-.357-.016-.713-.005-1.07-.027-1.547-1.216-2.792-2.432-3.754-4.213-3.619-8.425-7.24-12.619-10.876-.18-.177-.39-.312-.629-.399-.282-.059-.463-.216-.538-.472-.186-.384-.597-.622-.909-.913-4.186-3.552-8.277-7.208-12.506-10.708-.245-.096-.425-.256-.535-.48-.952-.935-2.044-1.744-3.024-2.654-.336-.268-.619-.625-1.052-.763-.282-.057-.457-.212-.533-.47-.183-.386-.597-.62-.912-.915-4.183-3.552-8.277-7.205-12.506-10.711-.247-.098-.428-.258-.543-.48-.896-.903-1.948-1.665-2.884-2.534-.377-.305-.697-.708-1.178-.881-.28-.057-.463-.214-.541-.47-.256-.477-.78-.77-1.178-1.141-3.79-3.267-7.583-6.534-11.373-9.798-.968-.829-2.233-1.464-3.586-1.451-.301.015-.603.017-.907.007-1.972-.032-3.395 1.373-4.659 2.566m-4.113-1.028c1.35 1.255 2.736 2.48 4.075 3.744.651-.608 1.329-1.191 1.988-1.791l.054-.005c.839-.883 1.95-1.737 3.322-1.604 1.536 0 2.561 1.154 3.591 2.025 20.96 18.056 41.918 36.113 62.879 54.169.834.654 1.334 1.656 1.181 2.672-.067 1.188-1.079 2.042-1.974 2.792-.624.716-1.383 1.321-2.077 1.978-11.755 10.726-23.462 21.498-35.22 32.221-2.365 2.101-4.603 4.327-7.048 6.349-.756.75-1.582 1.597-2.749 1.756-1.178.226-2.418-.202-3.193-1.031-19.747-19.176-39.503-38.346-59.253-57.522-.944-.94-2.2-1.867-2.206-3.264-.143-1.232.737-2.261 1.711-3.001.613-.694 1.334-1.301 2.018-1.936-1.264-1.092-2.475-2.236-3.715-3.351-.463-.428-.987-.878-1.068-1.515-.226-.893.301-1.776.971-2.396 10.488-9.596 20.974-19.2 31.481-28.782.812-.731 1.56-1.582 2.615-2.027.882-.177 1.996-.182 2.617.519m80.189 71.857l.005.167c-.785.868-1.765 1.574-2.561 2.438.282.362.49.77.807 1.107.482-.787 1.245-1.375 1.993-1.946 1.326 1.237 2.671 2.458 4.013 3.678-.129.3-.269.6-.433.888-1.418 2.763-2.375 5.749-2.542 8.807-.204 2.298.056 4.6.266 6.886-.573.696-1.289 1.294-2.042 1.825.132.62.487 1.193.882 1.707.425-.465.802-1.178 1.496-1.279 1.393 1.137 2.652 2.408 3.992 3.599-.398.411-.794.824-1.237 1.196 2.036 1.865 4.065 3.734 6.114 5.584-.293.13-.576.465-.92.241-.293.172-.621.276-.982.31l.293.071c-3.497 2.367-7.026 4.711-10.599 6.981-.231.268-.428.561-.565.883-.116-.253-.237-.502-.342-.753-.008.369-.03.74-.062 1.112-1.563-1.225-2.927-2.647-4.414-3.943-.417.389-.853.765-1.286 1.141-1.356-1.23-2.701-2.467-4.054-3.697 1.071-1.237 2.421-2.241 3.591-3.395 2.679-2.396 5.237-4.905 7.992-7.225-.36-.482-.643-1.011-.907-1.542-4.299 4.02-8.659 7.98-13.03 11.931-3.268-.376-6.601-.502-9.87-.057-2.539.354-4.982 1.129-7.317 2.093-.325.125-.726.603-1.065.273-1.34-1.154-2.593-2.391-3.925-3.552.516-.541 1.071-1.05 1.633-1.55 9.907-9.058 19.815-18.118 29.719-27.178.264-.359.643.002.88.192 1.046.898 1.956 1.929 3.091 2.738-1.461-1.405-3.102-2.669-4.347-4.248-10.873 9.892-21.689 19.837-32.554 29.736l-.339.098c-.936-.775-1.8-1.621-2.679-2.445 10.588-9.715 21.219-19.392 31.809-29.107.323-.288.673-.549 1.022-.809l-.078-.076c1.033-.996 2.13-1.941 3.177-2.927l.159.153c.594-1.031 1.681-1.71 2.539-2.544.909.795 1.832 1.582 2.674 2.438z"/><path d="M50.752 8.829c-1.732-.059-2.806 1.759-2.117 3.124.616 1.058 1.681 1.801 2.569 2.654l.753-.684c-.939-.9-2.418-1.7-2.389-3.1-.067-.831.627-1.432 1.184-1.995z"/></g><path d="M63.516 3.181c.1-.467-1.028-.455-.907.007.304.01.605.007.907-.007z" opacity=".22" fill="#242323"/><path d="M53.838 4.726c-.621-.701-1.735-.696-2.617-.519-1.054.445-1.802 1.296-2.615 2.027-10.507 9.582-20.993 19.186-31.481 28.782-.67.62-1.197 1.503-.971 2.396.081.637.605 1.087 1.068 1.515 1.24 1.114 2.451 2.258 3.715 3.351l2.265-2.069c-.952-1.05-2.556-1.828-2.725-3.306-.309-1.724 1.832-2.991 3.513-2.753l-.191.433c1.1.659 1.934 1.604 2.862 2.438.742-.642 1.463-1.309 2.184-1.973-1.081-1.134-2.967-2.081-2.744-3.82.005-1.137 1.232-2 2.418-1.958 1.66.261 2.59 1.663 3.736 2.64.753-.662 1.488-1.341 2.227-2.015-.804-.777-1.705-1.469-2.448-2.293-1.028-1.355.186-3.606 2.069-3.451 1.673.251 2.599 1.668 3.755 2.642.514-.455 1.017-.918 1.523-1.378l.557-.502c-.775-.967-1.902-1.683-2.496-2.763-.783-1.375.57-3.287 2.276-3.132 1.665.285 2.585 1.695 3.758 2.659.71-.642 1.41-1.292 2.114-1.934-.915-1.247-2.892-2.057-2.744-3.769-.038-1.203 1.27-2.177 2.531-2.096 1.606.371 2.55 1.702 3.691 2.686l2.136-1.958c-.888-.854-1.953-1.597-2.569-2.654-.689-1.365.385-3.183 2.117-3.124 1.778.079 2.717 1.646 3.917 2.62 1.076-.999 2.168-1.983 3.244-2.979-1.34-1.264-2.725-2.49-4.075-3.744z" fill="#2c2825"/><g fill="#ffd755"><path d="M66.868 7.095c-1.03-.871-2.055-2.025-3.591-2.025-1.372-.133-2.483.721-3.322 1.604 1.396-.273 2.956-.13 3.979.868 20.977 18.125 41.924 36.28 62.898 54.408.82.733 1.813 1.397 2.217 2.421.315.763.097 1.592-.094 2.357.896-.75 1.907-1.604 1.974-2.792.153-1.016-.347-2.017-1.181-2.672-20.96-18.056-41.918-36.113-62.879-54.169z"/><path d="M18.919 44.214c-.974.74-1.853 1.769-1.711 3.001.005 1.397 1.262 2.325 2.206 3.264 19.75 19.176 39.505 38.346 59.253 57.522.775.829 2.015 1.257 3.193 1.031 1.167-.16 1.993-1.006 2.749-1.756-1.38.435-3.059.28-4.038-.799-8.968-8.608-17.859-17.286-26.827-25.896-1.923-2.005-4.083-3.811-5.983-5.833-2.644-2.428-5.114-5.006-7.761-7.432-1.964-2.052-4.145-3.914-6.106-5.968l-12.6-12.12c-.729-.726-1.52-1.417-2.098-2.258-.543-.831-.468-1.843-.277-2.755z"/></g><path d="M32.256 31.909c-1.146-.977-2.077-2.379-3.736-2.64-.675.504-1.38 1.141-1.342 2.01-.051 1.373 1.383 2.175 2.305 3.055l.159-.039c.855-.812 1.711-1.621 2.615-2.386z" fill="#dededd"/><path d="M63.933 7.542c-1.022-.999-2.582-1.141-3.979-.868l-.054.005c-.659.6-1.337 1.183-1.988 1.791-1.076.996-2.168 1.98-3.244 2.979-.898.829-1.8 1.656-2.712 2.475l-.753.684-2.136 1.958c-.904.827-1.808 1.656-2.714 2.482l-.764.696c-.705.642-1.404 1.292-2.114 1.934-.92.822-1.827 1.656-2.728 2.494l-.81.74-.557.502c3.863 3.414 7.588 6.959 11.441 10.386.218.135.315.376.118.578-.608.878-1.278 1.742-1.603 2.753-1.434 3.919-.718 8.17.479 12.056 2.079 6.578 5.74 12.627 9.797 18.342 8.732 11.961 19.726 22.487 32.043 31.397 11.758-10.723 23.465-21.495 35.22-32.221.694-.657 1.453-1.262 2.077-1.978.191-.765.409-1.594.094-2.357-.404-1.023-1.396-1.688-2.217-2.421-20.974-18.128-41.921-36.283-62.898-54.408m4.508 28.093c5.91 1.604 11.427 4.209 16.667 7.141 7.091 4.002 13.636 8.767 19.782 13.904 5.533 4.716 10.765 9.742 15.494 15.144-3.817 3.624-7.766 7.132-11.653 10.694-2.386-1.85-4.57-3.904-6.781-5.921-7.605-7.124-14.472-14.962-19.903-23.609-2.652-4.3-4.971-8.817-6.362-13.601-.151-.544-.893-.558-1.353-.785-4.761-1.67-9.918-3.063-15.053-2.271-3.263.475-6.227 2.558-7.285 5.459-1.003 2.374-.675 4.935-.605 7.41-.463-1.606-.681-3.267-.767-4.922-.067-2.303.334-4.753 1.894-6.632 1.329-1.668 3.484-2.63 5.676-2.94 3.443-.413 6.935.047 10.249.93z" fill="#f0ba00"/><g fill="#838281"><path d="M54.669 11.449c-1.2-.974-2.139-2.541-3.917-2.62-.557.563-1.251 1.164-1.184 1.995-.03 1.4 1.45 2.199 2.389 3.1.912-.819 1.813-1.646 2.712-2.475z"/><path d="M142.88 111.79c-3.032-.996-6.617-.01-8.646 2.253-1.302 1.368-1.923 3.176-1.95 4.974l.291-.175c3.572-2.271 7.102-4.615 10.599-6.981l-.293-.071z"/></g><g fill="#211c19"><path d="M45.378 13.879c-1.262-.081-2.569.893-2.531 2.096-.148 1.712 1.829 2.522 2.744 3.769l.764-.696c-.928-.905-2.365-1.688-2.402-3.065-.043-.913.694-1.592 1.426-2.103z"/><path d="M34.104 24.15c-1.883-.155-3.096 2.096-2.069 3.451.742.824 1.644 1.515 2.448 2.293l.659-.613c-.942-.94-2.486-1.761-2.365-3.213.005-.827.689-1.422 1.326-1.919z"/><path d="M23.99 34.15c-1.681-.239-3.822 1.028-3.513 2.753.169 1.478 1.773 2.256 2.725 3.306.25-.231.495-.462.734-.696-.92-.92-2.426-1.707-2.351-3.122-.024-1.004 1.009-2.295 2.214-1.808l.191-.433z"/></g><g fill="#969594"><path d="M49.068 16.566c-1.141-.984-2.085-2.315-3.691-2.686-.732.512-1.469 1.191-1.426 2.103.038 1.378 1.474 2.16 2.402 3.065l2.714-2.482z"/><path d="M137.892 82.528c-.549.47-1.092.95-1.582 1.474-1.861 3.223-3.015 6.822-3.12 10.477-.035 1.988.011 3.985.344 5.953.753-.531 1.469-1.129 2.042-1.825-.21-2.285-.471-4.588-.266-6.886.167-3.058 1.124-6.044 2.542-8.807l.04-.386z"/><path d="M133.072 87.017c-1.42 1.127-2.701 2.386-4.046 3.589l-17.622 16.071c-3.18 2.935-6.443 5.796-9.563 8.782l.471-.069c2.335-.964 4.777-1.739 7.317-2.093 3.268-.445 6.601-.32 9.87.057 4.371-3.951 8.732-7.911 13.03-11.931-1.816-4.649-1.122-9.808.543-14.406z"/></g><g fill="#1d1c1b"><path d="M80.194 16.042c.089-.418-.091-.576-.541-.47.078.256.261.413.541.47z" opacity=".67"/><path d="M98.75 32.032c.1-.411-.075-.568-.533-.47.075.258.25.413.533.47z" opacity=".67"/><path d="M117.314 48.022c.091-.416-.086-.573-.538-.472.075.256.256.413.538.472z" opacity=".67"/></g><path d="M39.718 19.018c-1.705-.155-3.059 1.756-2.276 3.132.594 1.08 1.722 1.796 2.496 2.763l.81-.74c-.898-.913-2.321-1.668-2.389-3.023-.07-.908.651-1.599 1.358-2.13z" fill="#221d1a"/><g fill="#aaa9a9"><path d="M43.476 21.677c-1.173-.964-2.093-2.374-3.758-2.659-.707.531-1.428 1.223-1.358 2.13.067 1.355 1.49 2.111 2.389 3.023.901-.839 1.808-1.673 2.728-2.494z"/><path d="M138.667 105.654l-.196.172c-.245.219-.495.435-.732.667 1.52 1.599 3.303 2.972 4.847 4.556.43.128.85.285 1.275.43.344.224.627-.111.92-.241-2.05-1.85-4.078-3.72-6.114-5.584z"/><path d="M136.913 107.234c-3.239 2.969-6.499 5.921-9.722 8.908 1.488 1.296 2.851 2.718 4.414 3.943.032-.371.054-.743.062-1.112-.207-3.589 2.666-7.031 6.451-7.914.823-.207 1.679-.28 2.531-.31-1.106-1.289-2.459-2.374-3.736-3.515z"/></g><g fill="#1c1b1a"><path d="M84.8 19.936c.116-.443-.065-.603-.543-.48.116.221.296.381.543.48z" opacity=".33"/><path d="M103.361 35.928c.126-.435-.054-.595-.535-.48.11.224.291.384.535.48z" opacity=".33"/></g><path d="M37.859 26.792c-1.157-.974-2.082-2.391-3.755-2.642-.638.497-1.321 1.092-1.326 1.919-.121 1.451 1.423 2.273 2.365 3.213.885-.849 1.794-1.678 2.717-2.49z" fill="#c2c1c1"/><g fill="#ffcf33"><path d="M50.822 35.8c-3.852-3.427-7.578-6.972-11.441-10.386-.506.46-1.009.922-1.523 1.378-.923.812-1.832 1.641-2.717 2.49l-.659.613c-.74.674-1.474 1.353-2.227 2.015-.904.765-1.759 1.574-2.615 2.386l-.796.753c-.721.664-1.442 1.331-2.184 1.973-.942.799-1.851 1.631-2.725 2.492-.239.234-.484.465-.734.696l-2.265 2.069c-.683.635-1.404 1.242-2.018 1.936-.191.913-.266 1.924.277 2.755.578.841 1.369 1.533 2.098 2.258l12.6 12.12c1.961 2.054 4.143 3.916 6.106 5.968 2.647 2.426 5.116 5.004 7.761 7.432 1.899 2.022 4.059 3.828 5.983 5.833 8.968 8.61 17.859 17.289 26.827 25.896.979 1.08 2.658 1.235 4.038.799 2.445-2.022 4.683-4.248 7.048-6.349-12.318-8.91-23.312-19.436-32.043-31.397-4.057-5.715-7.718-11.764-9.797-18.342-1.197-3.887-1.913-8.138-.479-12.056.325-1.011.995-1.875 1.603-2.753.196-.202.1-.443-.118-.578z"/><path d="M68.442 35.635c-3.314-.883-6.806-1.343-10.249-.93-2.192.31-4.347 1.272-5.676 2.94-1.56 1.879-1.961 4.33-1.894 6.632.086 1.656.304 3.316.767 4.922-.07-2.475-.398-5.036.605-7.41 1.057-2.9 4.022-4.984 7.285-5.459 5.135-.792 10.292.6 15.053 2.271.46.226 1.202.241 1.353.785 1.391 4.785 3.71 9.301 6.362 13.601 5.431 8.647 12.299 16.484 19.903 23.609 2.211 2.017 4.395 4.071 6.781 5.921 3.887-3.562 7.836-7.07 11.653-10.694-4.729-5.402-9.961-10.428-15.494-15.144-6.147-5.136-12.691-9.902-19.782-13.904-5.24-2.932-10.757-5.537-16.667-7.141z"/></g><path d="M28.52 29.269c-1.186-.042-2.413.822-2.418 1.958-.223 1.739 1.662 2.686 2.744 3.82l.796-.753-.159.039c-.923-.881-2.356-1.683-2.305-3.055-.038-.868.667-1.506 1.342-2.01z" fill="#231e1b"/><g fill="#fff"><path d="M23.799 34.583c-1.205-.487-2.238.804-2.214 1.808-.075 1.414 1.431 2.202 2.351 3.122.874-.861 1.783-1.692 2.725-2.492-.928-.834-1.762-1.779-2.862-2.438z"/><path d="M128.814 76.688l-.159-.153c-1.046.986-2.144 1.931-3.177 2.927l.078.076c.901.854 1.867 1.648 2.741 2.526 1.245 1.579 2.886 2.844 4.347 4.248l.56.472-.132.231c-1.665 4.598-2.359 9.756-.543 14.406.264.531.546 1.06.907 1.542 1.332 1.264 2.714 2.482 4.065 3.732l-.586.536c1.278 1.141 2.631 2.226 3.736 3.515.651.064 1.299.165 1.937.3-1.544-1.584-3.328-2.957-4.847-4.556.237-.231.487-.448.732-.667-1.35-1.23-2.728-2.435-4.054-3.688-.395-.514-.751-1.087-.882-1.707-.334-1.968-.379-3.966-.344-5.953.105-3.656 1.259-7.255 3.12-10.477-1.34-1.24-2.712-2.45-4.032-3.707-.317-.337-.525-.745-.807-1.107-.837-.873-1.808-1.633-2.658-2.499z"/></g><path d="M14.082 37.845c.404-.487.404-1.176-.016-1.656-.145.541-.14 1.117.016 1.656z" fill="#040100"/><path d="M132.999 64.12c.516.01.508-1.082-.005-1.07-.011.357-.008.713.005 1.07z" opacity=".24" fill="#262525"/><g fill="#4d4948"><path d="M134.027 76.582c-.842-.856-1.765-1.643-2.674-2.438-.858.834-1.945 1.513-2.539 2.544.85.866 1.821 1.626 2.658 2.499.796-.863 1.775-1.569 2.561-2.438l-.005-.167z"/><path d="M128.297 82.066c-.874-.878-1.84-1.673-2.741-2.526-.35.261-.699.522-1.022.809-10.591 9.715-21.221 19.392-31.809 29.107.88.824 1.743 1.67 2.679 2.445l.339-.098c10.865-9.899 21.681-19.845 32.554-29.736z"/><path d="M139.904 104.459c-1.34-1.191-2.599-2.462-3.992-3.599-.694.101-1.071.814-1.496 1.279 1.326 1.252 2.703 2.458 4.054 3.688l.196-.172c.444-.371.839-.785 1.237-1.196z"/><path d="M137.5 106.697c-1.35-1.25-2.733-2.467-4.065-3.732-2.755 2.32-5.313 4.829-7.992 7.225-1.17 1.154-2.521 2.157-3.591 3.395 1.353 1.23 2.698 2.467 4.054 3.697.433-.376.869-.753 1.286-1.141 3.223-2.986 6.483-5.938 9.722-8.908l.586-.536z"/></g><path d="M136.593 77.738c.264-.197.32-.927-.1-.925-.097.288-.102.578-.013.873l.113.052z" opacity=".52" fill="#363433"/><g fill="#605d5c"><path d="M138.285 82.026c-1.342-1.22-2.687-2.44-4.013-3.678-.748.571-1.512 1.159-1.993 1.946 1.321 1.257 2.693 2.467 4.032 3.707.49-.524 1.033-1.004 1.582-1.474l-.04.386c.164-.288.304-.588.433-.888z"/><path d="M129.553 83.576c-.237-.189-.616-.551-.88-.192-9.905 9.06-19.812 18.12-29.719 27.178-.562.499-1.116 1.009-1.633 1.55 1.332 1.161 2.585 2.398 3.925 3.552.339.33.74-.148 1.065-.273l-.471.069c3.12-2.986 6.383-5.847 9.563-8.782l17.622-16.071c1.345-1.203 2.625-2.462 4.046-3.589l.132-.231-.56-.472c-1.135-.809-2.044-1.84-3.091-2.738z"/></g><path d="M138.304 87.072l-.226.477.242-.034.116-.244-.132-.199z" opacity=".51" fill="#262322"/><path d="M138.051 88.051l-.245.467.242-.03.124-.239-.121-.199z" opacity=".44" fill="#2d2b2a"/><path d="M137.446 89.091c-.387.322-.261.814-.016 1.176l.207-.401-.191-.775z" fill="#050202"/><path d="M137.478 90.575l-.086.138c-.175 1.988-.159 3.995.013 5.985l.113.111c.199-1.439-.261-2.871-.051-4.307.081-.64.145-1.289.011-1.926z" opacity=".27" fill="#222120"/><path d="M137.392 90.712c-.53.566-.35 1.336-.366 2.02.054 1.213-.056 2.43.043 3.643l.336.322c-.172-1.99-.188-3.998-.013-5.985z" fill="#020100"/><path d="M137.755 99.123c.266-.288.299-1.117-.215-1.137-.027.386-.027.799.215 1.137z" opacity=".37" fill="#2c2b2b"/><g fill="#0d0703"><path d="M142.586 111.049c-.638-.135-1.286-.236-1.937-.3-.853.03-1.708.103-2.531.31-3.785.883-6.658 4.325-6.451 7.914l.342.753c.137-.322.334-.615.565-.883l-.291.175c.027-1.798.648-3.606 1.95-4.974 2.028-2.263 5.614-3.25 8.646-2.253.36-.034.689-.138.982-.31-.425-.145-.845-.303-1.275-.43z"/><path d="M117.892 114.675c-1.864-.106-3.734-.005-5.601-.057-.643.015-1.426-.121-1.843.45 2.402-.246 4.829-.209 7.231.005l.213-.399z"/></g><path d="M121.08 115.563l-.414-.325c-.756.012-1.514.017-2.268-.069.675.721 1.789.369 2.682.394z" fill="#f5f6f5"/><path d="M98.231 119.093c-.78-.421-.1.809 0 0z" fill="#b6b5b3"/></g></svg>