<svg xmlns="http://www.w3.org/2000/svg" width="512" height="512" viewBox="0 0 512 512"><path d="M448.225 394.243l-85.387-85.385c16.55-26.081 26.146-56.986 26.146-90.094 0-92.989-75.652-168.641-168.643-168.641-92.989 0-168.641 75.652-168.641 168.641s75.651 168.641 168.641 168.641c31.465 0 60.939-8.67 86.175-23.735l86.14 86.142c36.755 36.754 92.355-18.783 55.569-55.569zm-344.233-175.479c0-64.156 52.192-116.352 116.35-116.352s116.353 52.195 116.353 116.352-52.195 116.352-116.353 116.352-116.35-52.196-116.35-116.352zm34.463-30.26c34.057-78.9 148.668-69.752 170.248 12.862-43.482-51.037-119.984-56.532-170.248-12.862z"/></svg>